%TF.GenerationSoftware,KiCad,Pcbnew,7.0.1*%
%TF.CreationDate,2023-03-31T23:01:12+02:00*%
%TF.ProjectId,rocket,726f636b-6574-42e6-9b69-6361645f7063,rev?*%
%TF.SameCoordinates,Original*%
%TF.FileFunction,Soldermask,Bot*%
%TF.FilePolarity,Negative*%
%FSLAX46Y46*%
G04 Gerber Fmt 4.6, Leading zero omitted, Abs format (unit mm)*
G04 Created by KiCad (PCBNEW 7.0.1) date 2023-03-31 23:01:12*
%MOMM*%
%LPD*%
G01*
G04 APERTURE LIST*
G04 Aperture macros list*
%AMRoundRect*
0 Rectangle with rounded corners*
0 $1 Rounding radius*
0 $2 $3 $4 $5 $6 $7 $8 $9 X,Y pos of 4 corners*
0 Add a 4 corners polygon primitive as box body*
4,1,4,$2,$3,$4,$5,$6,$7,$8,$9,$2,$3,0*
0 Add four circle primitives for the rounded corners*
1,1,$1+$1,$2,$3*
1,1,$1+$1,$4,$5*
1,1,$1+$1,$6,$7*
1,1,$1+$1,$8,$9*
0 Add four rect primitives between the rounded corners*
20,1,$1+$1,$2,$3,$4,$5,0*
20,1,$1+$1,$4,$5,$6,$7,0*
20,1,$1+$1,$6,$7,$8,$9,0*
20,1,$1+$1,$8,$9,$2,$3,0*%
%AMRotRect*
0 Rectangle, with rotation*
0 The origin of the aperture is its center*
0 $1 length*
0 $2 width*
0 $3 Rotation angle, in degrees counterclockwise*
0 Add horizontal line*
21,1,$1,$2,0,0,$3*%
G04 Aperture macros list end*
%ADD10C,0.010000*%
%ADD11RoundRect,0.500000X-1.347204X0.827673X0.581159X-1.470460X1.347204X-0.827673X-0.581159X1.470460X0*%
%ADD12C,5.500000*%
%ADD13R,1.524000X5.000000*%
%ADD14RotRect,1.524000X5.000000X45.000000*%
%ADD15RotRect,1.524000X5.000000X55.000000*%
%ADD16R,5.000000X3.600000*%
G04 APERTURE END LIST*
%TO.C,Ref\u002A\u002A*%
D10*
X109749833Y-100134346D02*
X109738890Y-100155581D01*
X109709090Y-100204778D01*
X109664976Y-100274619D01*
X109611092Y-100357789D01*
X109610758Y-100358298D01*
X109398084Y-100720937D01*
X109218174Y-101108913D01*
X109071992Y-101519619D01*
X108960502Y-101950447D01*
X108901787Y-102274750D01*
X108858684Y-102658506D01*
X108845936Y-103036578D01*
X108864279Y-103412644D01*
X108914450Y-103790381D01*
X108997185Y-104173467D01*
X109113221Y-104565580D01*
X109263294Y-104970397D01*
X109448140Y-105391597D01*
X109579942Y-105661417D01*
X109802939Y-106077684D01*
X110058917Y-106511708D01*
X110344700Y-106959231D01*
X110657109Y-107415997D01*
X110992968Y-107877746D01*
X111349099Y-108340221D01*
X111722326Y-108799166D01*
X112109470Y-109250321D01*
X112507354Y-109689429D01*
X112865409Y-110064083D01*
X113197595Y-110402750D01*
X113402208Y-110201667D01*
X113670998Y-109929025D01*
X113954649Y-109625615D01*
X114247844Y-109297881D01*
X114545268Y-108952268D01*
X114841604Y-108595222D01*
X115131534Y-108233189D01*
X115409743Y-107872614D01*
X115670912Y-107519942D01*
X115909727Y-107181620D01*
X115986234Y-107069000D01*
X116305827Y-106574849D01*
X116588112Y-106098877D01*
X116833486Y-105640018D01*
X117042346Y-105197202D01*
X117215089Y-104769364D01*
X117352113Y-104355435D01*
X117453814Y-103954348D01*
X117520590Y-103565035D01*
X117552837Y-103186428D01*
X117552786Y-102856833D01*
X117515020Y-102400365D01*
X117440690Y-101956621D01*
X117330709Y-101528588D01*
X117185989Y-101119253D01*
X117007443Y-100731602D01*
X116795984Y-100368621D01*
X116789242Y-100358298D01*
X116735313Y-100275064D01*
X116691128Y-100205105D01*
X116661231Y-100155741D01*
X116650167Y-100134293D01*
X116650167Y-100134265D01*
X116667121Y-100137015D01*
X116713704Y-100158364D01*
X116783494Y-100194716D01*
X116870070Y-100242476D01*
X116967012Y-100298048D01*
X117067898Y-100357838D01*
X117166307Y-100418249D01*
X117231490Y-100459765D01*
X117447310Y-100605601D01*
X117644607Y-100752216D01*
X117834236Y-100908497D01*
X118027051Y-101083331D01*
X118206529Y-101258137D01*
X118452844Y-101515345D01*
X118667965Y-101765021D01*
X118859182Y-102017270D01*
X119033788Y-102282196D01*
X119199072Y-102569904D01*
X119315536Y-102795099D01*
X119484585Y-103161766D01*
X119623658Y-103524890D01*
X119739392Y-103902181D01*
X119761654Y-103986039D01*
X119833903Y-104284577D01*
X119890101Y-104563944D01*
X119931684Y-104835820D01*
X119960089Y-105111881D01*
X119976750Y-105403806D01*
X119983105Y-105723272D01*
X119983266Y-105788417D01*
X119981432Y-106012348D01*
X119975097Y-106209262D01*
X119963035Y-106390082D01*
X119944019Y-106565731D01*
X119916823Y-106747133D01*
X119880220Y-106945211D01*
X119832984Y-107170887D01*
X119822843Y-107217167D01*
X119710556Y-107679207D01*
X119570503Y-108172525D01*
X119402896Y-108696627D01*
X119207948Y-109251023D01*
X118985871Y-109835218D01*
X118736879Y-110448722D01*
X118461183Y-111091041D01*
X118158996Y-111761684D01*
X117830531Y-112460159D01*
X117476001Y-113185973D01*
X117095618Y-113938635D01*
X116689594Y-114717651D01*
X116258143Y-115522530D01*
X116147188Y-115726167D01*
X115994350Y-116003746D01*
X115826674Y-116304597D01*
X115647491Y-116622947D01*
X115460132Y-116953026D01*
X115267929Y-117289061D01*
X115074212Y-117625283D01*
X114882312Y-117955920D01*
X114695560Y-118275200D01*
X114517288Y-118577352D01*
X114350827Y-118856606D01*
X114199507Y-119107189D01*
X114132153Y-119217343D01*
X113970338Y-119480697D01*
X113601044Y-119592485D01*
X113480226Y-119628288D01*
X113371203Y-119659154D01*
X113281307Y-119683122D01*
X113217872Y-119698229D01*
X113189417Y-119702626D01*
X113156006Y-119696071D01*
X113089673Y-119678916D01*
X112997884Y-119653239D01*
X112888107Y-119621120D01*
X112788614Y-119591038D01*
X112430146Y-119481096D01*
X112294214Y-119259923D01*
X112141592Y-119009286D01*
X111972411Y-118727321D01*
X111790126Y-118420003D01*
X111598194Y-118093304D01*
X111400071Y-117753200D01*
X111199214Y-117405665D01*
X110999079Y-117056672D01*
X110803122Y-116712196D01*
X110614800Y-116378212D01*
X110437569Y-116060692D01*
X110317098Y-115842583D01*
X109877808Y-115032826D01*
X109463734Y-114248309D01*
X109075058Y-113489479D01*
X108711963Y-112756785D01*
X108374629Y-112050673D01*
X108063239Y-111371591D01*
X107777973Y-110719986D01*
X107519015Y-110096305D01*
X107286545Y-109500996D01*
X107080745Y-108934505D01*
X106901797Y-108397281D01*
X106749883Y-107889771D01*
X106625183Y-107412421D01*
X106527881Y-106965680D01*
X106458157Y-106549994D01*
X106423874Y-106256751D01*
X106415408Y-106123603D01*
X106410983Y-105959246D01*
X106410395Y-105774593D01*
X106413439Y-105580554D01*
X106419911Y-105388042D01*
X106429607Y-105207968D01*
X106442322Y-105051243D01*
X106447293Y-105005250D01*
X106529092Y-104469672D01*
X106646527Y-103955865D01*
X106799300Y-103464358D01*
X106987117Y-102995680D01*
X107209680Y-102550361D01*
X107466693Y-102128931D01*
X107757862Y-101731918D01*
X108082888Y-101359854D01*
X108441477Y-101013266D01*
X108833333Y-100692684D01*
X108877336Y-100659858D01*
X108964306Y-100597852D01*
X109065825Y-100529183D01*
X109176457Y-100457123D01*
X109290764Y-100384949D01*
X109403310Y-100315935D01*
X109508658Y-100253355D01*
X109601370Y-100200484D01*
X109676012Y-100160596D01*
X109727144Y-100136967D01*
X109749331Y-100132871D01*
X109749833Y-100134346D01*
G36*
X109749833Y-100134346D02*
G01*
X109738890Y-100155581D01*
X109709090Y-100204778D01*
X109664976Y-100274619D01*
X109611092Y-100357789D01*
X109610758Y-100358298D01*
X109398084Y-100720937D01*
X109218174Y-101108913D01*
X109071992Y-101519619D01*
X108960502Y-101950447D01*
X108901787Y-102274750D01*
X108858684Y-102658506D01*
X108845936Y-103036578D01*
X108864279Y-103412644D01*
X108914450Y-103790381D01*
X108997185Y-104173467D01*
X109113221Y-104565580D01*
X109263294Y-104970397D01*
X109448140Y-105391597D01*
X109579942Y-105661417D01*
X109802939Y-106077684D01*
X110058917Y-106511708D01*
X110344700Y-106959231D01*
X110657109Y-107415997D01*
X110992968Y-107877746D01*
X111349099Y-108340221D01*
X111722326Y-108799166D01*
X112109470Y-109250321D01*
X112507354Y-109689429D01*
X112865409Y-110064083D01*
X113197595Y-110402750D01*
X113402208Y-110201667D01*
X113670998Y-109929025D01*
X113954649Y-109625615D01*
X114247844Y-109297881D01*
X114545268Y-108952268D01*
X114841604Y-108595222D01*
X115131534Y-108233189D01*
X115409743Y-107872614D01*
X115670912Y-107519942D01*
X115909727Y-107181620D01*
X115986234Y-107069000D01*
X116305827Y-106574849D01*
X116588112Y-106098877D01*
X116833486Y-105640018D01*
X117042346Y-105197202D01*
X117215089Y-104769364D01*
X117352113Y-104355435D01*
X117453814Y-103954348D01*
X117520590Y-103565035D01*
X117552837Y-103186428D01*
X117552786Y-102856833D01*
X117515020Y-102400365D01*
X117440690Y-101956621D01*
X117330709Y-101528588D01*
X117185989Y-101119253D01*
X117007443Y-100731602D01*
X116795984Y-100368621D01*
X116789242Y-100358298D01*
X116735313Y-100275064D01*
X116691128Y-100205105D01*
X116661231Y-100155741D01*
X116650167Y-100134293D01*
X116650167Y-100134265D01*
X116667121Y-100137015D01*
X116713704Y-100158364D01*
X116783494Y-100194716D01*
X116870070Y-100242476D01*
X116967012Y-100298048D01*
X117067898Y-100357838D01*
X117166307Y-100418249D01*
X117231490Y-100459765D01*
X117447310Y-100605601D01*
X117644607Y-100752216D01*
X117834236Y-100908497D01*
X118027051Y-101083331D01*
X118206529Y-101258137D01*
X118452844Y-101515345D01*
X118667965Y-101765021D01*
X118859182Y-102017270D01*
X119033788Y-102282196D01*
X119199072Y-102569904D01*
X119315536Y-102795099D01*
X119484585Y-103161766D01*
X119623658Y-103524890D01*
X119739392Y-103902181D01*
X119761654Y-103986039D01*
X119833903Y-104284577D01*
X119890101Y-104563944D01*
X119931684Y-104835820D01*
X119960089Y-105111881D01*
X119976750Y-105403806D01*
X119983105Y-105723272D01*
X119983266Y-105788417D01*
X119981432Y-106012348D01*
X119975097Y-106209262D01*
X119963035Y-106390082D01*
X119944019Y-106565731D01*
X119916823Y-106747133D01*
X119880220Y-106945211D01*
X119832984Y-107170887D01*
X119822843Y-107217167D01*
X119710556Y-107679207D01*
X119570503Y-108172525D01*
X119402896Y-108696627D01*
X119207948Y-109251023D01*
X118985871Y-109835218D01*
X118736879Y-110448722D01*
X118461183Y-111091041D01*
X118158996Y-111761684D01*
X117830531Y-112460159D01*
X117476001Y-113185973D01*
X117095618Y-113938635D01*
X116689594Y-114717651D01*
X116258143Y-115522530D01*
X116147188Y-115726167D01*
X115994350Y-116003746D01*
X115826674Y-116304597D01*
X115647491Y-116622947D01*
X115460132Y-116953026D01*
X115267929Y-117289061D01*
X115074212Y-117625283D01*
X114882312Y-117955920D01*
X114695560Y-118275200D01*
X114517288Y-118577352D01*
X114350827Y-118856606D01*
X114199507Y-119107189D01*
X114132153Y-119217343D01*
X113970338Y-119480697D01*
X113601044Y-119592485D01*
X113480226Y-119628288D01*
X113371203Y-119659154D01*
X113281307Y-119683122D01*
X113217872Y-119698229D01*
X113189417Y-119702626D01*
X113156006Y-119696071D01*
X113089673Y-119678916D01*
X112997884Y-119653239D01*
X112888107Y-119621120D01*
X112788614Y-119591038D01*
X112430146Y-119481096D01*
X112294214Y-119259923D01*
X112141592Y-119009286D01*
X111972411Y-118727321D01*
X111790126Y-118420003D01*
X111598194Y-118093304D01*
X111400071Y-117753200D01*
X111199214Y-117405665D01*
X110999079Y-117056672D01*
X110803122Y-116712196D01*
X110614800Y-116378212D01*
X110437569Y-116060692D01*
X110317098Y-115842583D01*
X109877808Y-115032826D01*
X109463734Y-114248309D01*
X109075058Y-113489479D01*
X108711963Y-112756785D01*
X108374629Y-112050673D01*
X108063239Y-111371591D01*
X107777973Y-110719986D01*
X107519015Y-110096305D01*
X107286545Y-109500996D01*
X107080745Y-108934505D01*
X106901797Y-108397281D01*
X106749883Y-107889771D01*
X106625183Y-107412421D01*
X106527881Y-106965680D01*
X106458157Y-106549994D01*
X106423874Y-106256751D01*
X106415408Y-106123603D01*
X106410983Y-105959246D01*
X106410395Y-105774593D01*
X106413439Y-105580554D01*
X106419911Y-105388042D01*
X106429607Y-105207968D01*
X106442322Y-105051243D01*
X106447293Y-105005250D01*
X106529092Y-104469672D01*
X106646527Y-103955865D01*
X106799300Y-103464358D01*
X106987117Y-102995680D01*
X107209680Y-102550361D01*
X107466693Y-102128931D01*
X107757862Y-101731918D01*
X108082888Y-101359854D01*
X108441477Y-101013266D01*
X108833333Y-100692684D01*
X108877336Y-100659858D01*
X108964306Y-100597852D01*
X109065825Y-100529183D01*
X109176457Y-100457123D01*
X109290764Y-100384949D01*
X109403310Y-100315935D01*
X109508658Y-100253355D01*
X109601370Y-100200484D01*
X109676012Y-100160596D01*
X109727144Y-100136967D01*
X109749331Y-100132871D01*
X109749833Y-100134346D01*
G37*
X113517755Y-55680455D02*
X113756805Y-55688291D01*
X113970271Y-55700687D01*
X114059142Y-55708143D01*
X114669419Y-55786632D01*
X115267961Y-55904978D01*
X115853206Y-56061946D01*
X116423592Y-56256299D01*
X116977556Y-56486802D01*
X117513539Y-56752220D01*
X118029977Y-57051318D01*
X118525310Y-57382858D01*
X118997975Y-57745607D01*
X119446410Y-58138327D01*
X119869055Y-58559785D01*
X120264347Y-59008743D01*
X120630724Y-59483967D01*
X120966625Y-59984220D01*
X121270488Y-60508268D01*
X121540752Y-61054874D01*
X121775854Y-61622804D01*
X121871041Y-61888750D01*
X122050973Y-62480666D01*
X122189628Y-63076640D01*
X122287647Y-63674884D01*
X122345673Y-64273610D01*
X122364348Y-64871030D01*
X122344314Y-65465354D01*
X122286213Y-66054795D01*
X122190687Y-66637565D01*
X122058378Y-67211874D01*
X121889927Y-67775935D01*
X121685978Y-68327959D01*
X121447172Y-68866158D01*
X121174151Y-69388743D01*
X120867557Y-69893926D01*
X120528032Y-70379919D01*
X120156219Y-70844933D01*
X119752759Y-71287180D01*
X119318294Y-71704872D01*
X118853466Y-72096220D01*
X118358917Y-72459436D01*
X117990022Y-72699308D01*
X117450456Y-73008089D01*
X116896851Y-73277099D01*
X116328713Y-73506501D01*
X115745551Y-73696461D01*
X115146871Y-73847143D01*
X114532181Y-73958713D01*
X114046667Y-74018167D01*
X113920267Y-74027623D01*
X113760543Y-74035119D01*
X113576460Y-74040614D01*
X113376983Y-74044066D01*
X113171077Y-74045434D01*
X112967708Y-74044676D01*
X112775841Y-74041751D01*
X112604440Y-74036617D01*
X112462473Y-74029232D01*
X112416833Y-74025717D01*
X111801898Y-73951361D01*
X111197469Y-73836480D01*
X110605144Y-73681935D01*
X110026521Y-73488587D01*
X109463199Y-73257297D01*
X108916776Y-72988925D01*
X108388850Y-72684333D01*
X107881019Y-72344381D01*
X107394880Y-71969929D01*
X106932034Y-71561840D01*
X106494076Y-71120972D01*
X106082607Y-70648188D01*
X106033712Y-70587635D01*
X105678055Y-70110385D01*
X105352599Y-69605782D01*
X105059295Y-69077999D01*
X104800094Y-68531213D01*
X104576948Y-67969599D01*
X104391808Y-67397332D01*
X104246627Y-66818587D01*
X104226100Y-66720056D01*
X104172106Y-66438364D01*
X104129327Y-66179264D01*
X104096730Y-65931944D01*
X104073279Y-65685587D01*
X104057941Y-65429379D01*
X104049681Y-65152506D01*
X104047456Y-64852083D01*
X104049206Y-64593362D01*
X104054431Y-64366549D01*
X104063964Y-64161306D01*
X104078635Y-63967289D01*
X104099277Y-63774158D01*
X104126721Y-63571572D01*
X104161797Y-63349189D01*
X104174257Y-63275167D01*
X104297100Y-62678930D01*
X104459970Y-62093966D01*
X104661603Y-61522212D01*
X104900735Y-60965605D01*
X105176101Y-60426085D01*
X105486438Y-59905589D01*
X105830482Y-59406054D01*
X106206967Y-58929420D01*
X106614630Y-58477624D01*
X107052206Y-58052604D01*
X107518432Y-57656298D01*
X108012043Y-57290644D01*
X108130583Y-57210236D01*
X108665446Y-56878184D01*
X109214282Y-56586008D01*
X109776740Y-56333834D01*
X110352468Y-56121788D01*
X110941113Y-55949995D01*
X111542323Y-55818582D01*
X112155748Y-55727674D01*
X112330841Y-55709382D01*
X112529772Y-55694543D01*
X112759131Y-55684222D01*
X113007716Y-55678429D01*
X113264325Y-55677171D01*
X113517755Y-55680455D01*
G36*
X113517755Y-55680455D02*
G01*
X113756805Y-55688291D01*
X113970271Y-55700687D01*
X114059142Y-55708143D01*
X114669419Y-55786632D01*
X115267961Y-55904978D01*
X115853206Y-56061946D01*
X116423592Y-56256299D01*
X116977556Y-56486802D01*
X117513539Y-56752220D01*
X118029977Y-57051318D01*
X118525310Y-57382858D01*
X118997975Y-57745607D01*
X119446410Y-58138327D01*
X119869055Y-58559785D01*
X120264347Y-59008743D01*
X120630724Y-59483967D01*
X120966625Y-59984220D01*
X121270488Y-60508268D01*
X121540752Y-61054874D01*
X121775854Y-61622804D01*
X121871041Y-61888750D01*
X122050973Y-62480666D01*
X122189628Y-63076640D01*
X122287647Y-63674884D01*
X122345673Y-64273610D01*
X122364348Y-64871030D01*
X122344314Y-65465354D01*
X122286213Y-66054795D01*
X122190687Y-66637565D01*
X122058378Y-67211874D01*
X121889927Y-67775935D01*
X121685978Y-68327959D01*
X121447172Y-68866158D01*
X121174151Y-69388743D01*
X120867557Y-69893926D01*
X120528032Y-70379919D01*
X120156219Y-70844933D01*
X119752759Y-71287180D01*
X119318294Y-71704872D01*
X118853466Y-72096220D01*
X118358917Y-72459436D01*
X117990022Y-72699308D01*
X117450456Y-73008089D01*
X116896851Y-73277099D01*
X116328713Y-73506501D01*
X115745551Y-73696461D01*
X115146871Y-73847143D01*
X114532181Y-73958713D01*
X114046667Y-74018167D01*
X113920267Y-74027623D01*
X113760543Y-74035119D01*
X113576460Y-74040614D01*
X113376983Y-74044066D01*
X113171077Y-74045434D01*
X112967708Y-74044676D01*
X112775841Y-74041751D01*
X112604440Y-74036617D01*
X112462473Y-74029232D01*
X112416833Y-74025717D01*
X111801898Y-73951361D01*
X111197469Y-73836480D01*
X110605144Y-73681935D01*
X110026521Y-73488587D01*
X109463199Y-73257297D01*
X108916776Y-72988925D01*
X108388850Y-72684333D01*
X107881019Y-72344381D01*
X107394880Y-71969929D01*
X106932034Y-71561840D01*
X106494076Y-71120972D01*
X106082607Y-70648188D01*
X106033712Y-70587635D01*
X105678055Y-70110385D01*
X105352599Y-69605782D01*
X105059295Y-69077999D01*
X104800094Y-68531213D01*
X104576948Y-67969599D01*
X104391808Y-67397332D01*
X104246627Y-66818587D01*
X104226100Y-66720056D01*
X104172106Y-66438364D01*
X104129327Y-66179264D01*
X104096730Y-65931944D01*
X104073279Y-65685587D01*
X104057941Y-65429379D01*
X104049681Y-65152506D01*
X104047456Y-64852083D01*
X104049206Y-64593362D01*
X104054431Y-64366549D01*
X104063964Y-64161306D01*
X104078635Y-63967289D01*
X104099277Y-63774158D01*
X104126721Y-63571572D01*
X104161797Y-63349189D01*
X104174257Y-63275167D01*
X104297100Y-62678930D01*
X104459970Y-62093966D01*
X104661603Y-61522212D01*
X104900735Y-60965605D01*
X105176101Y-60426085D01*
X105486438Y-59905589D01*
X105830482Y-59406054D01*
X106206967Y-58929420D01*
X106614630Y-58477624D01*
X107052206Y-58052604D01*
X107518432Y-57656298D01*
X108012043Y-57290644D01*
X108130583Y-57210236D01*
X108665446Y-56878184D01*
X109214282Y-56586008D01*
X109776740Y-56333834D01*
X110352468Y-56121788D01*
X110941113Y-55949995D01*
X111542323Y-55818582D01*
X112155748Y-55727674D01*
X112330841Y-55709382D01*
X112529772Y-55694543D01*
X112759131Y-55684222D01*
X113007716Y-55678429D01*
X113264325Y-55677171D01*
X113517755Y-55680455D01*
G37*
%TD*%
D11*
%TO.C,SW1*%
X123370664Y-59126489D03*
X109229337Y-42273511D03*
%TD*%
D12*
%TO.C,REF\u002A\u002A*%
X113200000Y-34000000D03*
%TD*%
D13*
%TO.C,D1*%
X107700000Y-96500000D03*
X110240000Y-96500000D03*
%TD*%
D14*
%TO.C,D2*%
X102800000Y-54400000D03*
X104596051Y-52603949D03*
%TD*%
D15*
%TO.C,D3*%
X125029326Y-72712932D03*
X126486211Y-70632286D03*
%TD*%
D13*
%TO.C,D4*%
X115930000Y-96575000D03*
X118470000Y-96575000D03*
%TD*%
D16*
%TO.C,BT1*%
X98400000Y-84000000D03*
X127700000Y-84000000D03*
%TD*%
M02*
