%TF.GenerationSoftware,KiCad,Pcbnew,(6.0.6)*%
%TF.CreationDate,2022-06-26T18:56:54+02:00*%
%TF.ProjectId,rocket,726f636b-6574-42e6-9b69-6361645f7063,rev?*%
%TF.SameCoordinates,Original*%
%TF.FileFunction,Legend,Bot*%
%TF.FilePolarity,Positive*%
%FSLAX46Y46*%
G04 Gerber Fmt 4.6, Leading zero omitted, Abs format (unit mm)*
G04 Created by KiCad (PCBNEW (6.0.6)) date 2022-06-26 18:56:54*
%MOMM*%
%LPD*%
G01*
G04 APERTURE LIST*
%ADD10C,0.150000*%
%ADD11C,0.125000*%
%ADD12C,0.120000*%
G04 APERTURE END LIST*
D10*
X90242857Y-92333333D02*
X90195238Y-92380952D01*
X90147619Y-92523809D01*
X90147619Y-92619047D01*
X90195238Y-92761904D01*
X90290476Y-92857142D01*
X90385714Y-92904761D01*
X90576190Y-92952380D01*
X90719047Y-92952380D01*
X90909523Y-92904761D01*
X91004761Y-92857142D01*
X91100000Y-92761904D01*
X91147619Y-92619047D01*
X91147619Y-92523809D01*
X91100000Y-92380952D01*
X91052380Y-92333333D01*
X90242857Y-91333333D02*
X90195238Y-91380952D01*
X90147619Y-91523809D01*
X90147619Y-91619047D01*
X90195238Y-91761904D01*
X90290476Y-91857142D01*
X90385714Y-91904761D01*
X90576190Y-91952380D01*
X90719047Y-91952380D01*
X90909523Y-91904761D01*
X91004761Y-91857142D01*
X91100000Y-91761904D01*
X91147619Y-91619047D01*
X91147619Y-91523809D01*
X91100000Y-91380952D01*
X91052380Y-91333333D01*
X90528571Y-90904761D02*
X90528571Y-90142857D01*
X90671428Y-89333333D02*
X90623809Y-89190476D01*
X90576190Y-89142857D01*
X90480952Y-89095238D01*
X90338095Y-89095238D01*
X90242857Y-89142857D01*
X90195238Y-89190476D01*
X90147619Y-89285714D01*
X90147619Y-89666666D01*
X91147619Y-89666666D01*
X91147619Y-89333333D01*
X91100000Y-89238095D01*
X91052380Y-89190476D01*
X90957142Y-89142857D01*
X90861904Y-89142857D01*
X90766666Y-89190476D01*
X90719047Y-89238095D01*
X90671428Y-89333333D01*
X90671428Y-89666666D01*
X90623809Y-88476190D02*
X90147619Y-88476190D01*
X91147619Y-88809523D02*
X90623809Y-88476190D01*
X91147619Y-88142857D01*
X90528571Y-87809523D02*
X90528571Y-87047619D01*
X90195238Y-86619047D02*
X90147619Y-86476190D01*
X90147619Y-86238095D01*
X90195238Y-86142857D01*
X90242857Y-86095238D01*
X90338095Y-86047619D01*
X90433333Y-86047619D01*
X90528571Y-86095238D01*
X90576190Y-86142857D01*
X90623809Y-86238095D01*
X90671428Y-86428571D01*
X90719047Y-86523809D01*
X90766666Y-86571428D01*
X90861904Y-86619047D01*
X90957142Y-86619047D01*
X91052380Y-86571428D01*
X91100000Y-86523809D01*
X91147619Y-86428571D01*
X91147619Y-86190476D01*
X91100000Y-86047619D01*
X90433333Y-85666666D02*
X90433333Y-85190476D01*
X90147619Y-85761904D02*
X91147619Y-85428571D01*
X90147619Y-85095238D01*
X90814285Y-83571428D02*
X90147619Y-83571428D01*
X91195238Y-83809523D02*
X90480952Y-84047619D01*
X90480952Y-83428571D01*
X90242857Y-83047619D02*
X90195238Y-83000000D01*
X90147619Y-83047619D01*
X90195238Y-83095238D01*
X90242857Y-83047619D01*
X90147619Y-83047619D01*
X91147619Y-82380952D02*
X91147619Y-82285714D01*
X91100000Y-82190476D01*
X91052380Y-82142857D01*
X90957142Y-82095238D01*
X90766666Y-82047619D01*
X90528571Y-82047619D01*
X90338095Y-82095238D01*
X90242857Y-82142857D01*
X90195238Y-82190476D01*
X90147619Y-82285714D01*
X90147619Y-82380952D01*
X90195238Y-82476190D01*
X90242857Y-82523809D01*
X90338095Y-82571428D01*
X90528571Y-82619047D01*
X90766666Y-82619047D01*
X90957142Y-82571428D01*
X91052380Y-82523809D01*
X91100000Y-82476190D01*
X91147619Y-82380952D01*
X134947619Y-92576190D02*
X135423809Y-92909523D01*
X134947619Y-93147619D02*
X135947619Y-93147619D01*
X135947619Y-92766666D01*
X135900000Y-92671428D01*
X135852380Y-92623809D01*
X135757142Y-92576190D01*
X135614285Y-92576190D01*
X135519047Y-92623809D01*
X135471428Y-92671428D01*
X135423809Y-92766666D01*
X135423809Y-93147619D01*
X134947619Y-92004761D02*
X134995238Y-92100000D01*
X135042857Y-92147619D01*
X135138095Y-92195238D01*
X135423809Y-92195238D01*
X135519047Y-92147619D01*
X135566666Y-92100000D01*
X135614285Y-92004761D01*
X135614285Y-91861904D01*
X135566666Y-91766666D01*
X135519047Y-91719047D01*
X135423809Y-91671428D01*
X135138095Y-91671428D01*
X135042857Y-91719047D01*
X134995238Y-91766666D01*
X134947619Y-91861904D01*
X134947619Y-92004761D01*
X134995238Y-90814285D02*
X134947619Y-90909523D01*
X134947619Y-91100000D01*
X134995238Y-91195238D01*
X135042857Y-91242857D01*
X135138095Y-91290476D01*
X135423809Y-91290476D01*
X135519047Y-91242857D01*
X135566666Y-91195238D01*
X135614285Y-91100000D01*
X135614285Y-90909523D01*
X135566666Y-90814285D01*
X134947619Y-90385714D02*
X135947619Y-90385714D01*
X135328571Y-90290476D02*
X134947619Y-90004761D01*
X135614285Y-90004761D02*
X135233333Y-90385714D01*
X134995238Y-89195238D02*
X134947619Y-89290476D01*
X134947619Y-89480952D01*
X134995238Y-89576190D01*
X135090476Y-89623809D01*
X135471428Y-89623809D01*
X135566666Y-89576190D01*
X135614285Y-89480952D01*
X135614285Y-89290476D01*
X135566666Y-89195238D01*
X135471428Y-89147619D01*
X135376190Y-89147619D01*
X135280952Y-89623809D01*
X135614285Y-88861904D02*
X135614285Y-88480952D01*
X135947619Y-88719047D02*
X135090476Y-88719047D01*
X134995238Y-88671428D01*
X134947619Y-88576190D01*
X134947619Y-88480952D01*
X135471428Y-87814285D02*
X135423809Y-87671428D01*
X135376190Y-87623809D01*
X135280952Y-87576190D01*
X135138095Y-87576190D01*
X135042857Y-87623809D01*
X134995238Y-87671428D01*
X134947619Y-87766666D01*
X134947619Y-88147619D01*
X135947619Y-88147619D01*
X135947619Y-87814285D01*
X135900000Y-87719047D01*
X135852380Y-87671428D01*
X135757142Y-87623809D01*
X135661904Y-87623809D01*
X135566666Y-87671428D01*
X135519047Y-87719047D01*
X135471428Y-87814285D01*
X135471428Y-88147619D01*
X134947619Y-86719047D02*
X135471428Y-86719047D01*
X135566666Y-86766666D01*
X135614285Y-86861904D01*
X135614285Y-87052380D01*
X135566666Y-87147619D01*
X134995238Y-86719047D02*
X134947619Y-86814285D01*
X134947619Y-87052380D01*
X134995238Y-87147619D01*
X135090476Y-87195238D01*
X135185714Y-87195238D01*
X135280952Y-87147619D01*
X135328571Y-87052380D01*
X135328571Y-86814285D01*
X135376190Y-86719047D01*
X134947619Y-85814285D02*
X135947619Y-85814285D01*
X134995238Y-85814285D02*
X134947619Y-85909523D01*
X134947619Y-86100000D01*
X134995238Y-86195238D01*
X135042857Y-86242857D01*
X135138095Y-86290476D01*
X135423809Y-86290476D01*
X135519047Y-86242857D01*
X135566666Y-86195238D01*
X135614285Y-86100000D01*
X135614285Y-85909523D01*
X135566666Y-85814285D01*
X135614285Y-84909523D02*
X134804761Y-84909523D01*
X134709523Y-84957142D01*
X134661904Y-85004761D01*
X134614285Y-85100000D01*
X134614285Y-85242857D01*
X134661904Y-85338095D01*
X134995238Y-84909523D02*
X134947619Y-85004761D01*
X134947619Y-85195238D01*
X134995238Y-85290476D01*
X135042857Y-85338095D01*
X135138095Y-85385714D01*
X135423809Y-85385714D01*
X135519047Y-85338095D01*
X135566666Y-85290476D01*
X135614285Y-85195238D01*
X135614285Y-85004761D01*
X135566666Y-84909523D01*
X134995238Y-84052380D02*
X134947619Y-84147619D01*
X134947619Y-84338095D01*
X134995238Y-84433333D01*
X135090476Y-84480952D01*
X135471428Y-84480952D01*
X135566666Y-84433333D01*
X135614285Y-84338095D01*
X135614285Y-84147619D01*
X135566666Y-84052380D01*
X135471428Y-84004761D01*
X135376190Y-84004761D01*
X135280952Y-84480952D01*
X121090476Y-75161904D02*
X121090476Y-74361904D01*
X120823809Y-74933333D01*
X120557142Y-74361904D01*
X120557142Y-75161904D01*
X120176190Y-75161904D02*
X120176190Y-74361904D01*
X119795238Y-75161904D02*
X119795238Y-74361904D01*
X119338095Y-75161904D01*
X119338095Y-74361904D01*
X119071428Y-74361904D02*
X118614285Y-74361904D01*
X118842857Y-75161904D02*
X118842857Y-74361904D01*
X118347619Y-74857142D02*
X117738095Y-74857142D01*
X116976190Y-75161904D02*
X117357142Y-75161904D01*
X117357142Y-74361904D01*
X116366666Y-75161904D02*
X116366666Y-74742857D01*
X116404761Y-74666666D01*
X116480952Y-74628571D01*
X116633333Y-74628571D01*
X116709523Y-74666666D01*
X116366666Y-75123809D02*
X116442857Y-75161904D01*
X116633333Y-75161904D01*
X116709523Y-75123809D01*
X116747619Y-75047619D01*
X116747619Y-74971428D01*
X116709523Y-74895238D01*
X116633333Y-74857142D01*
X116442857Y-74857142D01*
X116366666Y-74819047D01*
X115985714Y-75161904D02*
X115985714Y-74361904D01*
X115985714Y-74666666D02*
X115909523Y-74628571D01*
X115757142Y-74628571D01*
X115680952Y-74666666D01*
X115642857Y-74704761D01*
X115604761Y-74780952D01*
X115604761Y-75009523D01*
X115642857Y-75085714D01*
X115680952Y-75123809D01*
X115757142Y-75161904D01*
X115909523Y-75161904D01*
X115985714Y-75123809D01*
X115300000Y-75123809D02*
X115223809Y-75161904D01*
X115071428Y-75161904D01*
X114995238Y-75123809D01*
X114957142Y-75047619D01*
X114957142Y-75009523D01*
X114995238Y-74933333D01*
X115071428Y-74895238D01*
X115185714Y-74895238D01*
X115261904Y-74857142D01*
X115300000Y-74780952D01*
X115300000Y-74742857D01*
X115261904Y-74666666D01*
X115185714Y-74628571D01*
X115071428Y-74628571D01*
X114995238Y-74666666D01*
X113547619Y-75161904D02*
X113814285Y-74780952D01*
X114004761Y-75161904D02*
X114004761Y-74361904D01*
X113700000Y-74361904D01*
X113623809Y-74400000D01*
X113585714Y-74438095D01*
X113547619Y-74514285D01*
X113547619Y-74628571D01*
X113585714Y-74704761D01*
X113623809Y-74742857D01*
X113700000Y-74780952D01*
X114004761Y-74780952D01*
X112900000Y-75123809D02*
X112976190Y-75161904D01*
X113128571Y-75161904D01*
X113204761Y-75123809D01*
X113242857Y-75047619D01*
X113242857Y-74742857D01*
X113204761Y-74666666D01*
X113128571Y-74628571D01*
X112976190Y-74628571D01*
X112900000Y-74666666D01*
X112861904Y-74742857D01*
X112861904Y-74819047D01*
X113242857Y-74895238D01*
X112176190Y-74628571D02*
X112176190Y-75276190D01*
X112214285Y-75352380D01*
X112252380Y-75390476D01*
X112328571Y-75428571D01*
X112442857Y-75428571D01*
X112519047Y-75390476D01*
X112176190Y-75123809D02*
X112252380Y-75161904D01*
X112404761Y-75161904D01*
X112480952Y-75123809D01*
X112519047Y-75085714D01*
X112557142Y-75009523D01*
X112557142Y-74780952D01*
X112519047Y-74704761D01*
X112480952Y-74666666D01*
X112404761Y-74628571D01*
X112252380Y-74628571D01*
X112176190Y-74666666D01*
X111490476Y-75123809D02*
X111566666Y-75161904D01*
X111719047Y-75161904D01*
X111795238Y-75123809D01*
X111833333Y-75047619D01*
X111833333Y-74742857D01*
X111795238Y-74666666D01*
X111719047Y-74628571D01*
X111566666Y-74628571D01*
X111490476Y-74666666D01*
X111452380Y-74742857D01*
X111452380Y-74819047D01*
X111833333Y-74895238D01*
X111109523Y-74628571D02*
X111109523Y-75161904D01*
X111109523Y-74704761D02*
X111071428Y-74666666D01*
X110995238Y-74628571D01*
X110880952Y-74628571D01*
X110804761Y-74666666D01*
X110766666Y-74742857D01*
X110766666Y-75161904D01*
X110423809Y-75123809D02*
X110347619Y-75161904D01*
X110195238Y-75161904D01*
X110119047Y-75123809D01*
X110080952Y-75047619D01*
X110080952Y-75009523D01*
X110119047Y-74933333D01*
X110195238Y-74895238D01*
X110309523Y-74895238D01*
X110385714Y-74857142D01*
X110423809Y-74780952D01*
X110423809Y-74742857D01*
X110385714Y-74666666D01*
X110309523Y-74628571D01*
X110195238Y-74628571D01*
X110119047Y-74666666D01*
X109738095Y-75161904D02*
X109738095Y-74361904D01*
X109738095Y-74666666D02*
X109661904Y-74628571D01*
X109509523Y-74628571D01*
X109433333Y-74666666D01*
X109395238Y-74704761D01*
X109357142Y-74780952D01*
X109357142Y-75009523D01*
X109395238Y-75085714D01*
X109433333Y-75123809D01*
X109509523Y-75161904D01*
X109661904Y-75161904D01*
X109738095Y-75123809D01*
X108671428Y-74628571D02*
X108671428Y-75161904D01*
X109014285Y-74628571D02*
X109014285Y-75047619D01*
X108976190Y-75123809D01*
X108900000Y-75161904D01*
X108785714Y-75161904D01*
X108709523Y-75123809D01*
X108671428Y-75085714D01*
X108290476Y-75161904D02*
X108290476Y-74628571D01*
X108290476Y-74780952D02*
X108252380Y-74704761D01*
X108214285Y-74666666D01*
X108138095Y-74628571D01*
X108061904Y-74628571D01*
X107452380Y-74628571D02*
X107452380Y-75276190D01*
X107490476Y-75352380D01*
X107528571Y-75390476D01*
X107604761Y-75428571D01*
X107719047Y-75428571D01*
X107795238Y-75390476D01*
X107452380Y-75123809D02*
X107528571Y-75161904D01*
X107680952Y-75161904D01*
X107757142Y-75123809D01*
X107795238Y-75085714D01*
X107833333Y-75009523D01*
X107833333Y-74780952D01*
X107795238Y-74704761D01*
X107757142Y-74666666D01*
X107680952Y-74628571D01*
X107528571Y-74628571D01*
X107452380Y-74666666D01*
X106157142Y-75123809D02*
X106233333Y-75161904D01*
X106385714Y-75161904D01*
X106461904Y-75123809D01*
X106500000Y-75047619D01*
X106500000Y-74742857D01*
X106461904Y-74666666D01*
X106385714Y-74628571D01*
X106233333Y-74628571D01*
X106157142Y-74666666D01*
X106119047Y-74742857D01*
X106119047Y-74819047D01*
X106500000Y-74895238D01*
X105776190Y-75085714D02*
X105738095Y-75123809D01*
X105776190Y-75161904D01*
X105814285Y-75123809D01*
X105776190Y-75085714D01*
X105776190Y-75161904D01*
X105509523Y-74361904D02*
X105242857Y-75161904D01*
X104976190Y-74361904D01*
X104709523Y-75085714D02*
X104671428Y-75123809D01*
X104709523Y-75161904D01*
X104747619Y-75123809D01*
X104709523Y-75085714D01*
X104709523Y-75161904D01*
D11*
X133860714Y-84171428D02*
X133360714Y-83992857D01*
X133860714Y-83814285D01*
X134039285Y-83564285D02*
X134075000Y-83528571D01*
X134110714Y-83457142D01*
X134110714Y-83278571D01*
X134075000Y-83207142D01*
X134039285Y-83171428D01*
X133967857Y-83135714D01*
X133896428Y-83135714D01*
X133789285Y-83171428D01*
X133360714Y-83600000D01*
X133360714Y-83135714D01*
X133432142Y-82814285D02*
X133396428Y-82778571D01*
X133360714Y-82814285D01*
X133396428Y-82850000D01*
X133432142Y-82814285D01*
X133360714Y-82814285D01*
X133360714Y-82064285D02*
X133360714Y-82492857D01*
X133360714Y-82278571D02*
X134110714Y-82278571D01*
X134003571Y-82350000D01*
X133932142Y-82421428D01*
X133896428Y-82492857D01*
D10*
%TO.C,D1*%
X112080952Y-96821428D02*
X111319047Y-96821428D01*
X111700000Y-97202380D02*
X111700000Y-96440476D01*
%TO.C,D2*%
X106125085Y-51529483D02*
X105586337Y-52068231D01*
X106125085Y-52068231D02*
X105586337Y-51529483D01*
%TO.C,D3*%
X127805436Y-69308629D02*
X127368425Y-69932745D01*
X127898988Y-69839193D02*
X127274872Y-69402182D01*
%TO.C,D4*%
X120310952Y-96896428D02*
X119549047Y-96896428D01*
X119930000Y-97277380D02*
X119930000Y-96515476D01*
%TO.C,BT1*%
X99710714Y-89228571D02*
X99567857Y-89276190D01*
X99520238Y-89323809D01*
X99472619Y-89419047D01*
X99472619Y-89561904D01*
X99520238Y-89657142D01*
X99567857Y-89704761D01*
X99663095Y-89752380D01*
X100044047Y-89752380D01*
X100044047Y-88752380D01*
X99710714Y-88752380D01*
X99615476Y-88800000D01*
X99567857Y-88847619D01*
X99520238Y-88942857D01*
X99520238Y-89038095D01*
X99567857Y-89133333D01*
X99615476Y-89180952D01*
X99710714Y-89228571D01*
X100044047Y-89228571D01*
X99186904Y-88752380D02*
X98615476Y-88752380D01*
X98901190Y-89752380D02*
X98901190Y-88752380D01*
X97758333Y-89752380D02*
X98329761Y-89752380D01*
X98044047Y-89752380D02*
X98044047Y-88752380D01*
X98139285Y-88895238D01*
X98234523Y-88990476D01*
X98329761Y-89038095D01*
D12*
X101700000Y-92350000D02*
X124400000Y-92350000D01*
X124400000Y-75650000D02*
X103500000Y-75650000D01*
X101700000Y-87850000D02*
X98500000Y-87850000D01*
X98500000Y-80150000D02*
X98500000Y-81700000D01*
X103500000Y-75650000D02*
X101700000Y-77450000D01*
X124400000Y-75650000D02*
X124400000Y-80150000D01*
X100050000Y-79000000D02*
X100050000Y-77000000D01*
X101700000Y-92350000D02*
X101700000Y-87850000D01*
X124400000Y-87850000D02*
X127600000Y-87850000D01*
X98500000Y-87850000D02*
X98500000Y-86300000D01*
X101700000Y-80150000D02*
X98500000Y-80150000D01*
X127600000Y-87850000D02*
X127600000Y-86300000D01*
X127600000Y-80150000D02*
X127600000Y-81700000D01*
X124400000Y-92350000D02*
X124400000Y-87850000D01*
X101700000Y-77450000D02*
X101700000Y-80150000D01*
X101050000Y-78000000D02*
X99050000Y-78000000D01*
X124400000Y-80150000D02*
X127600000Y-80150000D01*
%TO.C,SW1*%
X118300001Y-50700000D02*
G75*
G03*
X118300001Y-50700000I-2000001J0D01*
G01*
X119800001Y-50700000D02*
G75*
G03*
X119800001Y-50700000I-3500001J0D01*
G01*
%TD*%
M02*
