%TF.GenerationSoftware,KiCad,Pcbnew,(6.0.5)*%
%TF.CreationDate,2022-06-01T22:24:45+02:00*%
%TF.ProjectId,rocket,726f636b-6574-42e6-9b69-6361645f7063,rev?*%
%TF.SameCoordinates,Original*%
%TF.FileFunction,Soldermask,Top*%
%TF.FilePolarity,Negative*%
%FSLAX46Y46*%
G04 Gerber Fmt 4.6, Leading zero omitted, Abs format (unit mm)*
G04 Created by KiCad (PCBNEW (6.0.5)) date 2022-06-01 22:24:45*
%MOMM*%
%LPD*%
G01*
G04 APERTURE LIST*
%ADD10C,0.010000*%
%ADD11C,2.500000*%
G04 APERTURE END LIST*
%TO.C,Ref\u002A\u002A*%
G36*
X103515634Y-93717432D02*
G01*
X103463896Y-93567984D01*
X103418862Y-93439544D01*
X103382050Y-93336430D01*
X103354978Y-93262958D01*
X103339165Y-93223447D01*
X103336196Y-93217963D01*
X103311738Y-93209419D01*
X103250810Y-93193884D01*
X103158490Y-93172486D01*
X103039853Y-93146355D01*
X102899979Y-93116618D01*
X102743943Y-93084403D01*
X102648765Y-93065175D01*
X101979387Y-92931007D01*
X101223818Y-93154273D01*
X101096397Y-93191906D01*
X100932352Y-93240327D01*
X100735665Y-93298359D01*
X100510321Y-93364828D01*
X100260304Y-93438561D01*
X99989596Y-93518382D01*
X99702183Y-93603117D01*
X99402047Y-93691591D01*
X99093172Y-93782629D01*
X98779543Y-93875058D01*
X98465142Y-93967701D01*
X98288083Y-94019869D01*
X97948074Y-94120049D01*
X97587775Y-94226216D01*
X97213294Y-94336569D01*
X96830736Y-94449309D01*
X96446207Y-94562637D01*
X96065815Y-94674753D01*
X95695664Y-94783856D01*
X95341861Y-94888148D01*
X95010513Y-94985829D01*
X94707725Y-95075098D01*
X94446333Y-95152172D01*
X94170426Y-95233532D01*
X93860370Y-95324963D01*
X93522623Y-95424559D01*
X93163642Y-95530417D01*
X92789882Y-95640633D01*
X92407802Y-95753303D01*
X92023857Y-95866523D01*
X91644504Y-95978389D01*
X91276200Y-96086997D01*
X90925402Y-96190443D01*
X90699833Y-96256960D01*
X90409340Y-96342616D01*
X90128300Y-96425471D01*
X89859626Y-96504667D01*
X89606232Y-96579345D01*
X89371032Y-96648648D01*
X89156940Y-96711717D01*
X88966868Y-96767693D01*
X88803732Y-96815719D01*
X88670444Y-96854937D01*
X88569918Y-96884487D01*
X88505069Y-96903512D01*
X88482625Y-96910061D01*
X88350333Y-96948345D01*
X88350333Y-95177922D01*
X89662667Y-95177922D01*
X89720875Y-95163477D01*
X89745990Y-95156192D01*
X89809938Y-95137226D01*
X89911011Y-95107091D01*
X90047501Y-95066299D01*
X90217703Y-95015362D01*
X90419909Y-94954793D01*
X90652412Y-94885104D01*
X90913504Y-94806807D01*
X91201479Y-94720414D01*
X91514630Y-94626438D01*
X91851250Y-94525391D01*
X92209631Y-94417786D01*
X92588067Y-94304133D01*
X92984851Y-94184947D01*
X93398275Y-94060738D01*
X93826633Y-93932020D01*
X94268216Y-93799304D01*
X94721320Y-93663103D01*
X95053957Y-93563099D01*
X95513647Y-93424900D01*
X95962710Y-93289917D01*
X96399459Y-93158655D01*
X96822208Y-93031622D01*
X97229272Y-92909322D01*
X97618964Y-92792262D01*
X97989598Y-92680948D01*
X98339488Y-92575887D01*
X98666947Y-92477583D01*
X98970290Y-92386544D01*
X99247830Y-92303275D01*
X99497882Y-92228282D01*
X99718758Y-92162072D01*
X99908774Y-92105150D01*
X100066242Y-92058023D01*
X100189476Y-92021196D01*
X100276791Y-91995176D01*
X100326501Y-91980469D01*
X100338083Y-91977167D01*
X100332702Y-91958910D01*
X100312209Y-91908084D01*
X100279132Y-91830602D01*
X100235998Y-91732378D01*
X100185336Y-91619325D01*
X100182040Y-91612042D01*
X100080309Y-91384071D01*
X99966196Y-91122612D01*
X99842224Y-90833797D01*
X99710918Y-90523762D01*
X99574800Y-90198638D01*
X99436396Y-89864560D01*
X99298229Y-89527662D01*
X99162822Y-89194076D01*
X99032700Y-88869936D01*
X98910386Y-88561377D01*
X98798404Y-88274531D01*
X98699278Y-88015532D01*
X98668738Y-87934333D01*
X98158553Y-86514316D01*
X97690401Y-85093387D01*
X97263985Y-83670161D01*
X96879007Y-82243254D01*
X96535170Y-80811284D01*
X96232176Y-79372864D01*
X95969728Y-77926612D01*
X95747528Y-76471144D01*
X95565279Y-75005074D01*
X95422683Y-73527020D01*
X95345595Y-72473439D01*
X95336335Y-72331726D01*
X95327581Y-72204766D01*
X95319773Y-72098434D01*
X95313355Y-72018603D01*
X95308769Y-71971148D01*
X95306921Y-71960365D01*
X95294752Y-71977129D01*
X95260104Y-72027587D01*
X95203996Y-72110219D01*
X95127446Y-72223507D01*
X95031473Y-72365930D01*
X94917095Y-72535971D01*
X94785331Y-72732108D01*
X94637199Y-72952824D01*
X94473718Y-73196598D01*
X94295906Y-73461912D01*
X94104783Y-73747245D01*
X93901366Y-74051080D01*
X93686675Y-74371895D01*
X93461727Y-74708173D01*
X93227541Y-75058393D01*
X92985136Y-75421037D01*
X92735531Y-75794584D01*
X92481579Y-76174769D01*
X89662667Y-80395603D01*
X89662667Y-95177922D01*
X88350333Y-95177922D01*
X88350333Y-79982729D01*
X95355656Y-69543207D01*
X96837153Y-69543207D01*
X96837312Y-69951050D01*
X96840264Y-70336629D01*
X96846113Y-70693771D01*
X96854960Y-71016304D01*
X96857458Y-71085667D01*
X96933707Y-72542073D01*
X97052086Y-73997198D01*
X97212394Y-75450206D01*
X97414429Y-76900264D01*
X97657991Y-78346539D01*
X97942877Y-79788195D01*
X98268888Y-81224400D01*
X98635821Y-82654320D01*
X99043475Y-84077120D01*
X99491650Y-85491967D01*
X99980144Y-86898027D01*
X100508756Y-88294466D01*
X101077285Y-89680450D01*
X101663898Y-91007943D01*
X101922661Y-91573303D01*
X102042122Y-91608193D01*
X102464361Y-91726155D01*
X102922014Y-91844121D01*
X103408185Y-91960646D01*
X103915979Y-92074287D01*
X104438502Y-92183599D01*
X104968857Y-92287139D01*
X105500152Y-92383462D01*
X106025489Y-92471125D01*
X106521917Y-92546383D01*
X107028627Y-92616481D01*
X107526286Y-92679801D01*
X108020606Y-92736830D01*
X108517300Y-92788053D01*
X109022081Y-92833957D01*
X109540661Y-92875029D01*
X110078755Y-92911753D01*
X110642073Y-92944616D01*
X111236330Y-92974105D01*
X111855917Y-93000265D01*
X112013849Y-93004883D01*
X112206542Y-93008012D01*
X112426452Y-93009710D01*
X112666034Y-93010033D01*
X112917746Y-93009040D01*
X113174041Y-93006788D01*
X113427377Y-93003334D01*
X113670210Y-92998737D01*
X113894994Y-92993053D01*
X114094187Y-92986340D01*
X114184250Y-92982503D01*
X114964302Y-92943708D01*
X115705621Y-92901393D01*
X116411690Y-92855147D01*
X117085996Y-92804559D01*
X117732024Y-92749216D01*
X118353258Y-92688705D01*
X118953184Y-92622615D01*
X119535288Y-92550534D01*
X120103054Y-92472049D01*
X120659967Y-92386749D01*
X121209513Y-92294221D01*
X121755177Y-92194053D01*
X122300444Y-92085833D01*
X122848061Y-91969306D01*
X126051437Y-91969306D01*
X131367927Y-93569323D01*
X131829647Y-93708257D01*
X132280866Y-93843986D01*
X132719895Y-93976006D01*
X133145050Y-94103810D01*
X133554643Y-94226893D01*
X133946989Y-94344749D01*
X134320400Y-94456872D01*
X134673189Y-94562757D01*
X135003672Y-94661898D01*
X135310161Y-94753789D01*
X135590969Y-94837925D01*
X135844411Y-94913800D01*
X136068799Y-94980909D01*
X136262448Y-95038745D01*
X136423671Y-95086803D01*
X136550781Y-95124578D01*
X136642092Y-95151564D01*
X136695917Y-95167254D01*
X136710875Y-95171336D01*
X136713335Y-95164176D01*
X136715647Y-95141565D01*
X136717816Y-95102383D01*
X136719845Y-95045510D01*
X136721739Y-94969825D01*
X136723501Y-94874209D01*
X136725136Y-94757539D01*
X136726647Y-94618697D01*
X136728039Y-94456562D01*
X136729315Y-94270013D01*
X136730480Y-94057931D01*
X136731537Y-93819193D01*
X136732491Y-93552681D01*
X136733346Y-93257274D01*
X136734105Y-92931852D01*
X136734773Y-92575293D01*
X136735353Y-92186478D01*
X136735850Y-91764286D01*
X136736268Y-91307598D01*
X136736610Y-90815291D01*
X136736882Y-90286247D01*
X136737085Y-89719344D01*
X136737226Y-89113463D01*
X136737307Y-88467483D01*
X136737333Y-87784424D01*
X136737333Y-80395515D01*
X133918499Y-76174647D01*
X133662761Y-75791767D01*
X133413219Y-75418275D01*
X133170892Y-75055691D01*
X132936798Y-74705535D01*
X132711955Y-74369326D01*
X132497381Y-74048585D01*
X132294094Y-73744831D01*
X132103114Y-73459584D01*
X131925457Y-73194363D01*
X131762143Y-72950688D01*
X131614189Y-72730079D01*
X131482614Y-72534055D01*
X131368435Y-72364136D01*
X131272672Y-72221843D01*
X131196342Y-72108694D01*
X131140464Y-72026209D01*
X131106055Y-71975908D01*
X131094138Y-71959306D01*
X131091019Y-71981172D01*
X131085844Y-72038293D01*
X131079166Y-72123669D01*
X131071539Y-72230304D01*
X131065251Y-72324291D01*
X131023946Y-72925717D01*
X130980162Y-73494192D01*
X130933025Y-74039072D01*
X130881658Y-74569708D01*
X130825185Y-75095456D01*
X130762731Y-75625668D01*
X130736323Y-75837583D01*
X130528344Y-77313625D01*
X130278466Y-78783773D01*
X129986740Y-80247835D01*
X129653216Y-81705621D01*
X129277942Y-83156938D01*
X128860968Y-84601596D01*
X128402343Y-86039402D01*
X127902118Y-87470166D01*
X127360342Y-88893696D01*
X127354672Y-88908000D01*
X127281453Y-89091144D01*
X127199236Y-89294139D01*
X127109772Y-89512846D01*
X127014811Y-89743127D01*
X126916106Y-89980841D01*
X126815407Y-90221852D01*
X126714466Y-90462020D01*
X126615033Y-90697207D01*
X126518861Y-90923273D01*
X126427699Y-91136081D01*
X126343299Y-91331491D01*
X126267413Y-91505366D01*
X126201792Y-91653565D01*
X126148186Y-91771951D01*
X126108346Y-91856385D01*
X126100243Y-91872694D01*
X126051437Y-91969306D01*
X122848061Y-91969306D01*
X122848799Y-91969149D01*
X122957833Y-91945052D01*
X123051747Y-91923648D01*
X123173966Y-91895003D01*
X123317673Y-91860786D01*
X123476050Y-91822666D01*
X123642280Y-91782312D01*
X123809544Y-91741393D01*
X123971025Y-91701579D01*
X124119905Y-91664538D01*
X124249367Y-91631940D01*
X124352592Y-91605453D01*
X124422764Y-91586746D01*
X124431945Y-91584168D01*
X124450699Y-91568904D01*
X124478144Y-91530291D01*
X124515147Y-91466533D01*
X124562577Y-91375835D01*
X124621301Y-91256402D01*
X124692186Y-91106438D01*
X124776102Y-90924150D01*
X124873915Y-90707741D01*
X124986494Y-90455416D01*
X125082323Y-90238842D01*
X125667788Y-88862061D01*
X126211322Y-87480524D01*
X126713152Y-86093348D01*
X127173503Y-84699649D01*
X127592601Y-83298545D01*
X127970671Y-81889151D01*
X128307939Y-80470584D01*
X128604630Y-79041960D01*
X128860970Y-77602397D01*
X129077185Y-76151010D01*
X129253501Y-74686917D01*
X129371008Y-73445750D01*
X129409760Y-72960314D01*
X129443101Y-72499335D01*
X129471330Y-72055231D01*
X129494748Y-71620418D01*
X129513654Y-71187315D01*
X129528348Y-70748339D01*
X129539130Y-70295907D01*
X129546301Y-69822437D01*
X129550160Y-69320347D01*
X129551065Y-68894917D01*
X129550236Y-68457226D01*
X129547576Y-68055284D01*
X129542823Y-67682534D01*
X129535716Y-67332419D01*
X129525993Y-66998385D01*
X129513393Y-66673874D01*
X129497655Y-66352332D01*
X129478517Y-66027200D01*
X129455719Y-65691925D01*
X129428998Y-65339949D01*
X129398094Y-64964716D01*
X129391175Y-64883833D01*
X129245310Y-63432039D01*
X129057739Y-61980624D01*
X128828979Y-60531477D01*
X128559546Y-59086488D01*
X128249957Y-57647547D01*
X127900727Y-56216542D01*
X127512373Y-54795362D01*
X127085410Y-53385898D01*
X126620355Y-51990039D01*
X126117723Y-50609674D01*
X125578032Y-49246692D01*
X125001797Y-47902983D01*
X124393883Y-46589492D01*
X124326617Y-46450012D01*
X124264733Y-46322804D01*
X124210741Y-46212939D01*
X124167153Y-46125488D01*
X124136476Y-46065521D01*
X124121223Y-46038111D01*
X124120570Y-46037274D01*
X124106744Y-46029159D01*
X124076875Y-46019251D01*
X124028167Y-46007028D01*
X123957824Y-45991967D01*
X123863052Y-45973549D01*
X123741055Y-45951250D01*
X123589038Y-45924549D01*
X123404206Y-45892925D01*
X123183764Y-45855857D01*
X122924916Y-45812821D01*
X122862583Y-45802508D01*
X122086753Y-45678829D01*
X121327218Y-45567306D01*
X120577074Y-45467232D01*
X119829417Y-45377898D01*
X119077343Y-45298598D01*
X118313951Y-45228624D01*
X117532334Y-45167269D01*
X116725591Y-45113825D01*
X115886817Y-45067585D01*
X115517750Y-45049887D01*
X115326638Y-45042406D01*
X115099031Y-45035693D01*
X114840758Y-45029781D01*
X114557652Y-45024704D01*
X114255543Y-45020496D01*
X113940262Y-45017191D01*
X113617641Y-45014824D01*
X113293510Y-45013427D01*
X112973700Y-45013034D01*
X112664043Y-45013681D01*
X112370370Y-45015401D01*
X112098511Y-45018228D01*
X111854298Y-45022195D01*
X111644250Y-45027317D01*
X110505983Y-45070249D01*
X109398678Y-45130529D01*
X108314342Y-45208929D01*
X107244985Y-45306221D01*
X106182614Y-45423177D01*
X105119236Y-45560570D01*
X104046861Y-45719173D01*
X103399833Y-45824160D01*
X103147096Y-45866673D01*
X102933271Y-45903097D01*
X102755459Y-45933981D01*
X102610763Y-45959875D01*
X102496284Y-45981331D01*
X102409124Y-45998898D01*
X102346387Y-46013127D01*
X102305173Y-46024569D01*
X102282585Y-46033773D01*
X102277782Y-46037274D01*
X102258608Y-46066871D01*
X102223880Y-46131561D01*
X102175258Y-46227761D01*
X102114402Y-46351890D01*
X102042973Y-46500365D01*
X101962630Y-46669604D01*
X101875035Y-46856024D01*
X101781847Y-47056044D01*
X101684726Y-47266082D01*
X101585334Y-47482554D01*
X101485330Y-47701879D01*
X101386375Y-47920475D01*
X101290128Y-48134759D01*
X101198251Y-48341149D01*
X101112403Y-48536063D01*
X101034245Y-48715918D01*
X101008434Y-48776000D01*
X100453302Y-50124497D01*
X99938224Y-51483150D01*
X99463020Y-52852714D01*
X99027510Y-54233947D01*
X98631515Y-55627604D01*
X98274856Y-57034441D01*
X97957352Y-58455215D01*
X97678824Y-59890681D01*
X97439094Y-61341595D01*
X97237980Y-62808714D01*
X97075304Y-64292794D01*
X96950886Y-65794590D01*
X96944363Y-65889250D01*
X96924032Y-66219692D01*
X96905565Y-66583426D01*
X96889066Y-66974279D01*
X96874636Y-67386077D01*
X96862380Y-67812649D01*
X96852400Y-68247820D01*
X96844800Y-68685419D01*
X96839683Y-69119272D01*
X96837153Y-69543207D01*
X95355656Y-69543207D01*
X95525833Y-69289605D01*
X95525842Y-69039344D01*
X95527110Y-68910169D01*
X95530745Y-68744898D01*
X95536507Y-68549688D01*
X95544156Y-68330695D01*
X95553451Y-68094076D01*
X95564153Y-67845989D01*
X95576022Y-67592590D01*
X95588817Y-67340035D01*
X95600418Y-67127500D01*
X95697012Y-65721025D01*
X95827390Y-64313133D01*
X95990954Y-62906445D01*
X96187110Y-61503580D01*
X96415263Y-60107159D01*
X96674815Y-58719802D01*
X96965172Y-57344130D01*
X97285737Y-55982762D01*
X97635916Y-54638319D01*
X98015112Y-53313422D01*
X98422729Y-52010689D01*
X98858173Y-50732743D01*
X99320847Y-49482202D01*
X99810155Y-48261688D01*
X99981953Y-47855250D01*
X100440144Y-46822725D01*
X100928012Y-45795590D01*
X101446629Y-44772073D01*
X101737085Y-44232955D01*
X103221063Y-44232955D01*
X103233555Y-44242889D01*
X103270659Y-44242410D01*
X103338066Y-44232591D01*
X103441470Y-44214509D01*
X103442167Y-44214385D01*
X103543860Y-44197222D01*
X103680887Y-44175382D01*
X103846625Y-44149829D01*
X104034451Y-44121530D01*
X104237744Y-44091449D01*
X104449881Y-44060554D01*
X104664240Y-44029809D01*
X104874198Y-44000180D01*
X105073133Y-43972632D01*
X105254424Y-43948131D01*
X105389500Y-43930448D01*
X105969740Y-43858546D01*
X106539303Y-43793345D01*
X107104873Y-43734281D01*
X107673134Y-43680790D01*
X108250770Y-43632309D01*
X108844465Y-43588274D01*
X109460904Y-43548122D01*
X110106770Y-43511289D01*
X110734083Y-43479784D01*
X110876626Y-43474311D01*
X111057076Y-43469444D01*
X111271009Y-43465182D01*
X111514002Y-43461527D01*
X111781634Y-43458477D01*
X112069480Y-43456034D01*
X112373119Y-43454197D01*
X112688128Y-43452966D01*
X113010084Y-43452341D01*
X113334563Y-43452322D01*
X113657144Y-43452910D01*
X113973404Y-43454105D01*
X114278919Y-43455905D01*
X114569267Y-43458313D01*
X114840026Y-43461327D01*
X115086772Y-43464947D01*
X115305083Y-43469174D01*
X115490536Y-43474008D01*
X115638708Y-43479449D01*
X115644750Y-43479723D01*
X116586723Y-43528004D01*
X117493743Y-43585207D01*
X118372372Y-43651981D01*
X119229173Y-43728974D01*
X120070710Y-43816836D01*
X120903546Y-43916216D01*
X121734244Y-44027761D01*
X122569366Y-44152121D01*
X122775187Y-44184585D01*
X122899680Y-44204074D01*
X123008950Y-44220497D01*
X123096477Y-44232932D01*
X123155739Y-44240453D01*
X123180215Y-44242136D01*
X123180462Y-44242007D01*
X123171799Y-44222815D01*
X123144489Y-44171402D01*
X123101016Y-44092233D01*
X123043860Y-43989771D01*
X122975503Y-43868479D01*
X122898427Y-43732822D01*
X122859254Y-43664250D01*
X122135434Y-42430690D01*
X121398768Y-41237304D01*
X120649107Y-40083882D01*
X119886303Y-38970215D01*
X119110207Y-37896091D01*
X118320669Y-36861300D01*
X117517540Y-35865633D01*
X116700671Y-34908879D01*
X116440551Y-34615599D01*
X116290209Y-34449476D01*
X116127026Y-34272456D01*
X115953989Y-34087555D01*
X115774088Y-33897789D01*
X115590309Y-33706174D01*
X115405643Y-33515729D01*
X115223078Y-33329468D01*
X115045601Y-33150409D01*
X114876201Y-32981568D01*
X114717867Y-32825962D01*
X114573588Y-32686607D01*
X114446351Y-32566520D01*
X114339145Y-32468717D01*
X114254958Y-32396215D01*
X114200617Y-32354594D01*
X113971919Y-32214502D01*
X113750761Y-32111681D01*
X113533232Y-32046056D01*
X113315416Y-32017551D01*
X113093402Y-32026091D01*
X112863276Y-32071600D01*
X112621124Y-32154005D01*
X112363033Y-32273228D01*
X112279250Y-32317611D01*
X112231290Y-32344435D01*
X112186596Y-32371732D01*
X112141706Y-32402609D01*
X112093158Y-32440177D01*
X112037493Y-32487541D01*
X111971247Y-32547811D01*
X111890960Y-32624094D01*
X111793171Y-32719498D01*
X111674418Y-32837132D01*
X111531239Y-32980103D01*
X111442873Y-33068612D01*
X110642875Y-33894366D01*
X109850970Y-34759599D01*
X109068965Y-35661925D01*
X108298666Y-36598957D01*
X107541879Y-37568312D01*
X106800410Y-38567603D01*
X106076067Y-39594444D01*
X105370654Y-40646451D01*
X104685979Y-41721237D01*
X104023847Y-42816418D01*
X103893037Y-43039833D01*
X103807684Y-43187139D01*
X103716754Y-43345327D01*
X103626707Y-43503076D01*
X103544000Y-43649065D01*
X103475092Y-43771971D01*
X103464386Y-43791250D01*
X103403108Y-43901483D01*
X103345981Y-44003646D01*
X103297421Y-44089888D01*
X103261846Y-44152355D01*
X103247146Y-44177542D01*
X103227490Y-44211531D01*
X103221063Y-44232955D01*
X101737085Y-44232955D01*
X101997065Y-43750405D01*
X102580392Y-42728813D01*
X103197679Y-41705525D01*
X103849997Y-40678771D01*
X104538417Y-39646779D01*
X105264009Y-38607778D01*
X106027844Y-37559996D01*
X106830993Y-36501661D01*
X106890177Y-36425250D01*
X107422231Y-35746183D01*
X107936501Y-35104002D01*
X108433913Y-34497620D01*
X108915399Y-33925951D01*
X109381885Y-33387909D01*
X109834300Y-32882407D01*
X110273575Y-32408358D01*
X110700636Y-31964677D01*
X110719505Y-31945485D01*
X110890816Y-31773220D01*
X111039415Y-31628465D01*
X111170632Y-31507019D01*
X111289801Y-31404681D01*
X111402253Y-31317250D01*
X111513319Y-31240524D01*
X111628332Y-31170302D01*
X111752624Y-31102383D01*
X111855917Y-31050043D01*
X112191415Y-30902758D01*
X112520932Y-30795985D01*
X112847697Y-30728912D01*
X113174935Y-30700733D01*
X113252917Y-30699667D01*
X113584798Y-30719884D01*
X113911088Y-30780801D01*
X114233012Y-30882815D01*
X114551794Y-31026322D01*
X114868657Y-31211718D01*
X114903081Y-31234442D01*
X115003633Y-31308823D01*
X115128880Y-31413677D01*
X115276667Y-31546747D01*
X115444840Y-31705777D01*
X115631245Y-31888509D01*
X115833726Y-32092687D01*
X116050129Y-32316056D01*
X116278300Y-32556357D01*
X116516083Y-32811335D01*
X116761325Y-33078732D01*
X117011870Y-33356293D01*
X117265564Y-33641761D01*
X117520252Y-33932878D01*
X117773781Y-34227390D01*
X117879884Y-34352126D01*
X118744679Y-35393119D01*
X119576344Y-36436056D01*
X120373798Y-37479405D01*
X121135960Y-38521639D01*
X121861750Y-39561227D01*
X122550089Y-40596640D01*
X123199895Y-41626348D01*
X123810089Y-42648823D01*
X124105589Y-43166833D01*
X124445122Y-43783398D01*
X124787930Y-44428712D01*
X125129865Y-45094270D01*
X125466777Y-45771563D01*
X125794520Y-46452085D01*
X126108944Y-47127329D01*
X126405902Y-47788787D01*
X126681244Y-48427953D01*
X126742840Y-48575144D01*
X127292250Y-49950941D01*
X127802957Y-51343681D01*
X128274828Y-52752864D01*
X128707731Y-54177987D01*
X129101534Y-55618549D01*
X129456105Y-57074049D01*
X129771311Y-58543985D01*
X130047020Y-60027854D01*
X130283101Y-61525157D01*
X130417551Y-62523750D01*
X130508957Y-63291685D01*
X130588561Y-64047679D01*
X130656995Y-64800236D01*
X130714891Y-65557864D01*
X130762881Y-66329068D01*
X130801597Y-67122354D01*
X130831670Y-67946229D01*
X130838985Y-68196417D01*
X130863583Y-69085417D01*
X134143294Y-74059583D01*
X134422213Y-74482607D01*
X134697063Y-74899466D01*
X134966793Y-75308565D01*
X135230351Y-75708308D01*
X135486685Y-76097099D01*
X135734742Y-76473343D01*
X135973472Y-76835444D01*
X136201822Y-77181807D01*
X136418740Y-77510835D01*
X136623174Y-77820934D01*
X136814073Y-78110506D01*
X136990384Y-78377958D01*
X137151055Y-78621693D01*
X137295034Y-78840115D01*
X137421270Y-79031629D01*
X137528711Y-79194639D01*
X137616304Y-79327549D01*
X137682997Y-79428764D01*
X137727740Y-79496688D01*
X137736336Y-79509745D01*
X138049667Y-79985741D01*
X138049667Y-96935458D01*
X137991458Y-96923750D01*
X137968207Y-96917460D01*
X137910626Y-96901022D01*
X137818467Y-96874364D01*
X137691479Y-96837412D01*
X137529414Y-96790092D01*
X137332022Y-96732332D01*
X137099055Y-96664057D01*
X136830262Y-96585195D01*
X136525395Y-96495673D01*
X136184204Y-96395416D01*
X135806441Y-96284351D01*
X135391855Y-96162406D01*
X134940198Y-96029506D01*
X134451221Y-95885579D01*
X133924673Y-95730551D01*
X133360307Y-95564348D01*
X132757873Y-95386898D01*
X132117120Y-95198127D01*
X131437802Y-94997961D01*
X130719667Y-94786328D01*
X129962466Y-94563154D01*
X129165952Y-94328365D01*
X128329873Y-94081889D01*
X127453982Y-93823651D01*
X126538028Y-93553579D01*
X125581763Y-93271599D01*
X125430655Y-93227039D01*
X124442727Y-92935709D01*
X123708213Y-93100136D01*
X123537137Y-93139042D01*
X123378680Y-93176249D01*
X123237718Y-93210521D01*
X123119128Y-93240623D01*
X123027788Y-93265321D01*
X122968574Y-93283380D01*
X122946808Y-93292906D01*
X122935141Y-93318229D01*
X122912081Y-93379874D01*
X122878996Y-93473799D01*
X122837252Y-93595961D01*
X122788213Y-93742317D01*
X122733248Y-93908825D01*
X122673722Y-94091443D01*
X122611001Y-94286127D01*
X122608186Y-94294917D01*
X122468628Y-94728958D01*
X122339526Y-95126309D01*
X122219462Y-95490914D01*
X122107023Y-95826717D01*
X122000791Y-96137663D01*
X121899351Y-96427696D01*
X121801286Y-96700760D01*
X121705182Y-96960800D01*
X121609621Y-97211760D01*
X121513188Y-97457585D01*
X121414467Y-97702218D01*
X121312042Y-97949605D01*
X121207776Y-98196015D01*
X121124318Y-98389396D01*
X121053412Y-98548491D01*
X120992287Y-98678474D01*
X120938173Y-98784523D01*
X120888301Y-98871813D01*
X120839900Y-98945520D01*
X120790199Y-99010821D01*
X120741432Y-99067385D01*
X120673972Y-99137221D01*
X120604499Y-99197601D01*
X120527960Y-99250726D01*
X120439303Y-99298795D01*
X120333472Y-99344006D01*
X120205417Y-99388559D01*
X120050082Y-99434653D01*
X119862415Y-99484488D01*
X119676933Y-99530642D01*
X119488869Y-99575455D01*
X119271615Y-99625442D01*
X119032494Y-99679051D01*
X118778824Y-99734727D01*
X118517927Y-99790917D01*
X118257124Y-99846068D01*
X118003735Y-99898626D01*
X117765081Y-99947037D01*
X117548482Y-99989748D01*
X117361259Y-100025205D01*
X117264000Y-100042714D01*
X117122803Y-100067628D01*
X116994610Y-100090582D01*
X116885613Y-100110440D01*
X116802007Y-100126066D01*
X116749983Y-100136325D01*
X116736162Y-100139537D01*
X116739562Y-100153145D01*
X116775100Y-100182019D01*
X116837260Y-100222069D01*
X116884328Y-100249364D01*
X117196059Y-100435193D01*
X117483123Y-100630665D01*
X117756298Y-100844004D01*
X118026362Y-101083433D01*
X118206529Y-101258137D01*
X118452844Y-101515345D01*
X118667965Y-101765021D01*
X118859182Y-102017270D01*
X119033788Y-102282196D01*
X119199072Y-102569904D01*
X119315536Y-102795099D01*
X119484585Y-103161766D01*
X119623658Y-103524890D01*
X119739392Y-103902181D01*
X119761654Y-103986039D01*
X119833903Y-104284577D01*
X119890101Y-104563944D01*
X119931684Y-104835820D01*
X119960089Y-105111881D01*
X119976750Y-105403806D01*
X119983105Y-105723272D01*
X119983266Y-105788417D01*
X119982705Y-105967844D01*
X119980665Y-106113801D01*
X119976631Y-106235141D01*
X119970087Y-106340717D01*
X119960517Y-106439381D01*
X119947405Y-106539986D01*
X119934546Y-106624500D01*
X119868415Y-106995879D01*
X119786055Y-107377100D01*
X119686366Y-107771824D01*
X119568247Y-108183708D01*
X119430596Y-108616411D01*
X119272314Y-109073593D01*
X119092298Y-109558912D01*
X118915434Y-110011167D01*
X118673640Y-110598330D01*
X118405805Y-111215147D01*
X118113300Y-111859011D01*
X117797493Y-112527314D01*
X117459753Y-113217448D01*
X117101449Y-113926806D01*
X116723952Y-114652780D01*
X116328629Y-115392763D01*
X115916852Y-116144146D01*
X115489988Y-116904322D01*
X115049407Y-117670684D01*
X114596478Y-118440624D01*
X114132571Y-119211535D01*
X113797051Y-119758417D01*
X113692349Y-119927752D01*
X113593291Y-120088045D01*
X113502362Y-120235267D01*
X113422048Y-120365390D01*
X113354832Y-120474388D01*
X113303201Y-120558233D01*
X113269639Y-120612898D01*
X113258290Y-120631542D01*
X113227799Y-120676003D01*
X113204406Y-120699318D01*
X113201072Y-120700333D01*
X113185225Y-120683224D01*
X113151408Y-120635853D01*
X113103603Y-120564155D01*
X113045794Y-120474067D01*
X112998703Y-120398708D01*
X112810765Y-120094508D01*
X112643019Y-119822582D01*
X112493249Y-119579290D01*
X112359237Y-119360993D01*
X112238766Y-119164050D01*
X112129619Y-118984821D01*
X112029576Y-118819666D01*
X111936423Y-118664944D01*
X111847939Y-118517015D01*
X111761909Y-118372239D01*
X111686734Y-118245000D01*
X111219249Y-117443211D01*
X110769803Y-116655012D01*
X110339005Y-115881683D01*
X109927464Y-115124505D01*
X109535791Y-114384758D01*
X109164595Y-113663723D01*
X108814486Y-112962680D01*
X108486074Y-112282909D01*
X108179969Y-111625692D01*
X107896780Y-110992307D01*
X107637118Y-110384036D01*
X107401592Y-109802159D01*
X107190811Y-109247957D01*
X107005387Y-108722709D01*
X106845928Y-108227697D01*
X106736566Y-107851044D01*
X106640339Y-107484387D01*
X106562248Y-107148808D01*
X106501329Y-106837604D01*
X106456619Y-106544074D01*
X106427154Y-106261516D01*
X106411969Y-105983227D01*
X106410101Y-105702506D01*
X106412554Y-105597917D01*
X106444819Y-105074915D01*
X106509017Y-104576720D01*
X106606154Y-104099233D01*
X106737234Y-103638358D01*
X106903260Y-103189996D01*
X107105238Y-102750048D01*
X107115605Y-102729564D01*
X107296603Y-102397232D01*
X107489623Y-102091874D01*
X107702062Y-101803332D01*
X107941318Y-101521448D01*
X108172752Y-101278030D01*
X108435241Y-101025714D01*
X108692381Y-100803740D01*
X108955391Y-100603496D01*
X109235488Y-100416368D01*
X109501882Y-100257488D01*
X109687848Y-100151681D01*
X109586549Y-100139726D01*
X109512354Y-100131822D01*
X109417173Y-100122818D01*
X109326500Y-100115067D01*
X108978799Y-100080425D01*
X108619587Y-100032031D01*
X108263357Y-99972242D01*
X107924601Y-99903418D01*
X107707250Y-99851542D01*
X107625033Y-99829706D01*
X107514364Y-99799117D01*
X107380126Y-99761219D01*
X107227206Y-99717454D01*
X107060490Y-99669267D01*
X106884862Y-99618101D01*
X106705209Y-99565398D01*
X106526415Y-99512603D01*
X106353367Y-99461159D01*
X106190949Y-99412508D01*
X106044048Y-99368095D01*
X105917548Y-99329363D01*
X105816336Y-99297754D01*
X105745296Y-99274713D01*
X105709315Y-99261683D01*
X105707211Y-99260664D01*
X105689096Y-99237040D01*
X105656598Y-99180869D01*
X105612858Y-99098139D01*
X105561016Y-98994840D01*
X105504211Y-98876959D01*
X105488509Y-98843576D01*
X105265166Y-98353374D01*
X105039360Y-97831963D01*
X104810493Y-97277798D01*
X104577965Y-96689333D01*
X104341177Y-96065025D01*
X104099530Y-95403328D01*
X103852423Y-94702697D01*
X103633143Y-94062083D01*
X103574409Y-93889030D01*
X104973414Y-93889030D01*
X104977036Y-93911387D01*
X104993188Y-93969089D01*
X105020324Y-94057559D01*
X105056896Y-94172215D01*
X105101360Y-94308481D01*
X105152168Y-94461776D01*
X105207776Y-94627522D01*
X105266636Y-94801139D01*
X105327204Y-94978049D01*
X105387932Y-95153672D01*
X105447275Y-95323430D01*
X105503686Y-95482743D01*
X105555620Y-95627032D01*
X105601531Y-95751718D01*
X105609499Y-95772957D01*
X105673576Y-95941112D01*
X105745651Y-96126883D01*
X105820283Y-96316457D01*
X105892027Y-96496024D01*
X105955441Y-96651772D01*
X105964028Y-96672540D01*
X106014099Y-96791711D01*
X106072455Y-96927908D01*
X106136838Y-97076108D01*
X106204989Y-97231287D01*
X106274649Y-97388420D01*
X106343558Y-97542483D01*
X106409460Y-97688451D01*
X106470094Y-97821301D01*
X106523201Y-97936008D01*
X106566524Y-98027548D01*
X106597803Y-98090897D01*
X106614779Y-98121029D01*
X106615748Y-98122174D01*
X106645719Y-98136447D01*
X106712308Y-98157985D01*
X106810644Y-98185649D01*
X106935854Y-98218298D01*
X107083067Y-98254792D01*
X107247410Y-98293992D01*
X107424011Y-98334756D01*
X107607998Y-98375946D01*
X107794499Y-98416421D01*
X107978643Y-98455040D01*
X108155556Y-98490665D01*
X108320368Y-98522155D01*
X108342250Y-98526178D01*
X108767458Y-98598710D01*
X109232671Y-98668215D01*
X109735649Y-98734441D01*
X110274154Y-98797138D01*
X110845947Y-98856055D01*
X111448792Y-98910939D01*
X112080448Y-98961540D01*
X112469750Y-98989561D01*
X112585006Y-98995181D01*
X112734326Y-98998911D01*
X112909487Y-99000832D01*
X113102264Y-99001027D01*
X113304434Y-98999581D01*
X113507773Y-98996574D01*
X113704059Y-98992091D01*
X113885067Y-98986214D01*
X114042574Y-98979027D01*
X114141917Y-98972707D01*
X114652781Y-98933237D01*
X115125151Y-98894217D01*
X115562855Y-98855182D01*
X115969723Y-98815665D01*
X116349582Y-98775198D01*
X116706263Y-98733317D01*
X117043594Y-98689553D01*
X117365404Y-98643440D01*
X117675521Y-98594512D01*
X117977775Y-98542302D01*
X118275995Y-98486344D01*
X118498447Y-98441813D01*
X118638147Y-98412371D01*
X118790524Y-98378948D01*
X118949668Y-98342970D01*
X119109668Y-98305860D01*
X119264613Y-98269044D01*
X119408592Y-98233946D01*
X119535695Y-98201991D01*
X119640011Y-98174604D01*
X119715628Y-98153208D01*
X119756637Y-98139228D01*
X119759304Y-98137931D01*
X119782344Y-98110518D01*
X119819297Y-98047358D01*
X119868573Y-97952098D01*
X119928581Y-97828385D01*
X119997733Y-97679866D01*
X120074438Y-97510187D01*
X120157107Y-97322994D01*
X120244151Y-97121934D01*
X120333979Y-96910654D01*
X120425002Y-96692800D01*
X120515631Y-96472020D01*
X120604276Y-96251958D01*
X120689346Y-96036263D01*
X120769254Y-95828581D01*
X120790336Y-95772762D01*
X120835016Y-95651974D01*
X120886009Y-95510781D01*
X120941769Y-95353759D01*
X121000747Y-95185485D01*
X121061398Y-95010534D01*
X121122174Y-94833483D01*
X121181529Y-94658909D01*
X121237916Y-94491386D01*
X121289787Y-94335492D01*
X121335597Y-94195804D01*
X121373798Y-94076896D01*
X121402843Y-93983345D01*
X121421186Y-93919729D01*
X121427279Y-93890622D01*
X121426946Y-93889391D01*
X121404604Y-93890399D01*
X121345926Y-93897635D01*
X121256324Y-93910304D01*
X121141209Y-93927610D01*
X121005992Y-93948759D01*
X120856084Y-93972957D01*
X120838624Y-93975821D01*
X119467568Y-94182304D01*
X118108781Y-94349003D01*
X116760067Y-94475917D01*
X115419227Y-94563045D01*
X114084065Y-94610388D01*
X112752384Y-94617946D01*
X111421985Y-94585718D01*
X110090674Y-94513705D01*
X108756251Y-94401906D01*
X107416520Y-94250322D01*
X106069284Y-94058951D01*
X105551033Y-93975151D01*
X105401310Y-93950501D01*
X105265699Y-93928876D01*
X105149662Y-93911089D01*
X105058660Y-93897956D01*
X104998157Y-93890290D01*
X104973613Y-93888906D01*
X104973414Y-93889030D01*
X103574409Y-93889030D01*
X103572556Y-93883571D01*
X103515634Y-93717432D01*
G37*
D10*
X103515634Y-93717432D02*
X103463896Y-93567984D01*
X103418862Y-93439544D01*
X103382050Y-93336430D01*
X103354978Y-93262958D01*
X103339165Y-93223447D01*
X103336196Y-93217963D01*
X103311738Y-93209419D01*
X103250810Y-93193884D01*
X103158490Y-93172486D01*
X103039853Y-93146355D01*
X102899979Y-93116618D01*
X102743943Y-93084403D01*
X102648765Y-93065175D01*
X101979387Y-92931007D01*
X101223818Y-93154273D01*
X101096397Y-93191906D01*
X100932352Y-93240327D01*
X100735665Y-93298359D01*
X100510321Y-93364828D01*
X100260304Y-93438561D01*
X99989596Y-93518382D01*
X99702183Y-93603117D01*
X99402047Y-93691591D01*
X99093172Y-93782629D01*
X98779543Y-93875058D01*
X98465142Y-93967701D01*
X98288083Y-94019869D01*
X97948074Y-94120049D01*
X97587775Y-94226216D01*
X97213294Y-94336569D01*
X96830736Y-94449309D01*
X96446207Y-94562637D01*
X96065815Y-94674753D01*
X95695664Y-94783856D01*
X95341861Y-94888148D01*
X95010513Y-94985829D01*
X94707725Y-95075098D01*
X94446333Y-95152172D01*
X94170426Y-95233532D01*
X93860370Y-95324963D01*
X93522623Y-95424559D01*
X93163642Y-95530417D01*
X92789882Y-95640633D01*
X92407802Y-95753303D01*
X92023857Y-95866523D01*
X91644504Y-95978389D01*
X91276200Y-96086997D01*
X90925402Y-96190443D01*
X90699833Y-96256960D01*
X90409340Y-96342616D01*
X90128300Y-96425471D01*
X89859626Y-96504667D01*
X89606232Y-96579345D01*
X89371032Y-96648648D01*
X89156940Y-96711717D01*
X88966868Y-96767693D01*
X88803732Y-96815719D01*
X88670444Y-96854937D01*
X88569918Y-96884487D01*
X88505069Y-96903512D01*
X88482625Y-96910061D01*
X88350333Y-96948345D01*
X88350333Y-95177922D01*
X89662667Y-95177922D01*
X89720875Y-95163477D01*
X89745990Y-95156192D01*
X89809938Y-95137226D01*
X89911011Y-95107091D01*
X90047501Y-95066299D01*
X90217703Y-95015362D01*
X90419909Y-94954793D01*
X90652412Y-94885104D01*
X90913504Y-94806807D01*
X91201479Y-94720414D01*
X91514630Y-94626438D01*
X91851250Y-94525391D01*
X92209631Y-94417786D01*
X92588067Y-94304133D01*
X92984851Y-94184947D01*
X93398275Y-94060738D01*
X93826633Y-93932020D01*
X94268216Y-93799304D01*
X94721320Y-93663103D01*
X95053957Y-93563099D01*
X95513647Y-93424900D01*
X95962710Y-93289917D01*
X96399459Y-93158655D01*
X96822208Y-93031622D01*
X97229272Y-92909322D01*
X97618964Y-92792262D01*
X97989598Y-92680948D01*
X98339488Y-92575887D01*
X98666947Y-92477583D01*
X98970290Y-92386544D01*
X99247830Y-92303275D01*
X99497882Y-92228282D01*
X99718758Y-92162072D01*
X99908774Y-92105150D01*
X100066242Y-92058023D01*
X100189476Y-92021196D01*
X100276791Y-91995176D01*
X100326501Y-91980469D01*
X100338083Y-91977167D01*
X100332702Y-91958910D01*
X100312209Y-91908084D01*
X100279132Y-91830602D01*
X100235998Y-91732378D01*
X100185336Y-91619325D01*
X100182040Y-91612042D01*
X100080309Y-91384071D01*
X99966196Y-91122612D01*
X99842224Y-90833797D01*
X99710918Y-90523762D01*
X99574800Y-90198638D01*
X99436396Y-89864560D01*
X99298229Y-89527662D01*
X99162822Y-89194076D01*
X99032700Y-88869936D01*
X98910386Y-88561377D01*
X98798404Y-88274531D01*
X98699278Y-88015532D01*
X98668738Y-87934333D01*
X98158553Y-86514316D01*
X97690401Y-85093387D01*
X97263985Y-83670161D01*
X96879007Y-82243254D01*
X96535170Y-80811284D01*
X96232176Y-79372864D01*
X95969728Y-77926612D01*
X95747528Y-76471144D01*
X95565279Y-75005074D01*
X95422683Y-73527020D01*
X95345595Y-72473439D01*
X95336335Y-72331726D01*
X95327581Y-72204766D01*
X95319773Y-72098434D01*
X95313355Y-72018603D01*
X95308769Y-71971148D01*
X95306921Y-71960365D01*
X95294752Y-71977129D01*
X95260104Y-72027587D01*
X95203996Y-72110219D01*
X95127446Y-72223507D01*
X95031473Y-72365930D01*
X94917095Y-72535971D01*
X94785331Y-72732108D01*
X94637199Y-72952824D01*
X94473718Y-73196598D01*
X94295906Y-73461912D01*
X94104783Y-73747245D01*
X93901366Y-74051080D01*
X93686675Y-74371895D01*
X93461727Y-74708173D01*
X93227541Y-75058393D01*
X92985136Y-75421037D01*
X92735531Y-75794584D01*
X92481579Y-76174769D01*
X89662667Y-80395603D01*
X89662667Y-95177922D01*
X88350333Y-95177922D01*
X88350333Y-79982729D01*
X95355656Y-69543207D01*
X96837153Y-69543207D01*
X96837312Y-69951050D01*
X96840264Y-70336629D01*
X96846113Y-70693771D01*
X96854960Y-71016304D01*
X96857458Y-71085667D01*
X96933707Y-72542073D01*
X97052086Y-73997198D01*
X97212394Y-75450206D01*
X97414429Y-76900264D01*
X97657991Y-78346539D01*
X97942877Y-79788195D01*
X98268888Y-81224400D01*
X98635821Y-82654320D01*
X99043475Y-84077120D01*
X99491650Y-85491967D01*
X99980144Y-86898027D01*
X100508756Y-88294466D01*
X101077285Y-89680450D01*
X101663898Y-91007943D01*
X101922661Y-91573303D01*
X102042122Y-91608193D01*
X102464361Y-91726155D01*
X102922014Y-91844121D01*
X103408185Y-91960646D01*
X103915979Y-92074287D01*
X104438502Y-92183599D01*
X104968857Y-92287139D01*
X105500152Y-92383462D01*
X106025489Y-92471125D01*
X106521917Y-92546383D01*
X107028627Y-92616481D01*
X107526286Y-92679801D01*
X108020606Y-92736830D01*
X108517300Y-92788053D01*
X109022081Y-92833957D01*
X109540661Y-92875029D01*
X110078755Y-92911753D01*
X110642073Y-92944616D01*
X111236330Y-92974105D01*
X111855917Y-93000265D01*
X112013849Y-93004883D01*
X112206542Y-93008012D01*
X112426452Y-93009710D01*
X112666034Y-93010033D01*
X112917746Y-93009040D01*
X113174041Y-93006788D01*
X113427377Y-93003334D01*
X113670210Y-92998737D01*
X113894994Y-92993053D01*
X114094187Y-92986340D01*
X114184250Y-92982503D01*
X114964302Y-92943708D01*
X115705621Y-92901393D01*
X116411690Y-92855147D01*
X117085996Y-92804559D01*
X117732024Y-92749216D01*
X118353258Y-92688705D01*
X118953184Y-92622615D01*
X119535288Y-92550534D01*
X120103054Y-92472049D01*
X120659967Y-92386749D01*
X121209513Y-92294221D01*
X121755177Y-92194053D01*
X122300444Y-92085833D01*
X122848061Y-91969306D01*
X126051437Y-91969306D01*
X131367927Y-93569323D01*
X131829647Y-93708257D01*
X132280866Y-93843986D01*
X132719895Y-93976006D01*
X133145050Y-94103810D01*
X133554643Y-94226893D01*
X133946989Y-94344749D01*
X134320400Y-94456872D01*
X134673189Y-94562757D01*
X135003672Y-94661898D01*
X135310161Y-94753789D01*
X135590969Y-94837925D01*
X135844411Y-94913800D01*
X136068799Y-94980909D01*
X136262448Y-95038745D01*
X136423671Y-95086803D01*
X136550781Y-95124578D01*
X136642092Y-95151564D01*
X136695917Y-95167254D01*
X136710875Y-95171336D01*
X136713335Y-95164176D01*
X136715647Y-95141565D01*
X136717816Y-95102383D01*
X136719845Y-95045510D01*
X136721739Y-94969825D01*
X136723501Y-94874209D01*
X136725136Y-94757539D01*
X136726647Y-94618697D01*
X136728039Y-94456562D01*
X136729315Y-94270013D01*
X136730480Y-94057931D01*
X136731537Y-93819193D01*
X136732491Y-93552681D01*
X136733346Y-93257274D01*
X136734105Y-92931852D01*
X136734773Y-92575293D01*
X136735353Y-92186478D01*
X136735850Y-91764286D01*
X136736268Y-91307598D01*
X136736610Y-90815291D01*
X136736882Y-90286247D01*
X136737085Y-89719344D01*
X136737226Y-89113463D01*
X136737307Y-88467483D01*
X136737333Y-87784424D01*
X136737333Y-80395515D01*
X133918499Y-76174647D01*
X133662761Y-75791767D01*
X133413219Y-75418275D01*
X133170892Y-75055691D01*
X132936798Y-74705535D01*
X132711955Y-74369326D01*
X132497381Y-74048585D01*
X132294094Y-73744831D01*
X132103114Y-73459584D01*
X131925457Y-73194363D01*
X131762143Y-72950688D01*
X131614189Y-72730079D01*
X131482614Y-72534055D01*
X131368435Y-72364136D01*
X131272672Y-72221843D01*
X131196342Y-72108694D01*
X131140464Y-72026209D01*
X131106055Y-71975908D01*
X131094138Y-71959306D01*
X131091019Y-71981172D01*
X131085844Y-72038293D01*
X131079166Y-72123669D01*
X131071539Y-72230304D01*
X131065251Y-72324291D01*
X131023946Y-72925717D01*
X130980162Y-73494192D01*
X130933025Y-74039072D01*
X130881658Y-74569708D01*
X130825185Y-75095456D01*
X130762731Y-75625668D01*
X130736323Y-75837583D01*
X130528344Y-77313625D01*
X130278466Y-78783773D01*
X129986740Y-80247835D01*
X129653216Y-81705621D01*
X129277942Y-83156938D01*
X128860968Y-84601596D01*
X128402343Y-86039402D01*
X127902118Y-87470166D01*
X127360342Y-88893696D01*
X127354672Y-88908000D01*
X127281453Y-89091144D01*
X127199236Y-89294139D01*
X127109772Y-89512846D01*
X127014811Y-89743127D01*
X126916106Y-89980841D01*
X126815407Y-90221852D01*
X126714466Y-90462020D01*
X126615033Y-90697207D01*
X126518861Y-90923273D01*
X126427699Y-91136081D01*
X126343299Y-91331491D01*
X126267413Y-91505366D01*
X126201792Y-91653565D01*
X126148186Y-91771951D01*
X126108346Y-91856385D01*
X126100243Y-91872694D01*
X126051437Y-91969306D01*
X122848061Y-91969306D01*
X122848799Y-91969149D01*
X122957833Y-91945052D01*
X123051747Y-91923648D01*
X123173966Y-91895003D01*
X123317673Y-91860786D01*
X123476050Y-91822666D01*
X123642280Y-91782312D01*
X123809544Y-91741393D01*
X123971025Y-91701579D01*
X124119905Y-91664538D01*
X124249367Y-91631940D01*
X124352592Y-91605453D01*
X124422764Y-91586746D01*
X124431945Y-91584168D01*
X124450699Y-91568904D01*
X124478144Y-91530291D01*
X124515147Y-91466533D01*
X124562577Y-91375835D01*
X124621301Y-91256402D01*
X124692186Y-91106438D01*
X124776102Y-90924150D01*
X124873915Y-90707741D01*
X124986494Y-90455416D01*
X125082323Y-90238842D01*
X125667788Y-88862061D01*
X126211322Y-87480524D01*
X126713152Y-86093348D01*
X127173503Y-84699649D01*
X127592601Y-83298545D01*
X127970671Y-81889151D01*
X128307939Y-80470584D01*
X128604630Y-79041960D01*
X128860970Y-77602397D01*
X129077185Y-76151010D01*
X129253501Y-74686917D01*
X129371008Y-73445750D01*
X129409760Y-72960314D01*
X129443101Y-72499335D01*
X129471330Y-72055231D01*
X129494748Y-71620418D01*
X129513654Y-71187315D01*
X129528348Y-70748339D01*
X129539130Y-70295907D01*
X129546301Y-69822437D01*
X129550160Y-69320347D01*
X129551065Y-68894917D01*
X129550236Y-68457226D01*
X129547576Y-68055284D01*
X129542823Y-67682534D01*
X129535716Y-67332419D01*
X129525993Y-66998385D01*
X129513393Y-66673874D01*
X129497655Y-66352332D01*
X129478517Y-66027200D01*
X129455719Y-65691925D01*
X129428998Y-65339949D01*
X129398094Y-64964716D01*
X129391175Y-64883833D01*
X129245310Y-63432039D01*
X129057739Y-61980624D01*
X128828979Y-60531477D01*
X128559546Y-59086488D01*
X128249957Y-57647547D01*
X127900727Y-56216542D01*
X127512373Y-54795362D01*
X127085410Y-53385898D01*
X126620355Y-51990039D01*
X126117723Y-50609674D01*
X125578032Y-49246692D01*
X125001797Y-47902983D01*
X124393883Y-46589492D01*
X124326617Y-46450012D01*
X124264733Y-46322804D01*
X124210741Y-46212939D01*
X124167153Y-46125488D01*
X124136476Y-46065521D01*
X124121223Y-46038111D01*
X124120570Y-46037274D01*
X124106744Y-46029159D01*
X124076875Y-46019251D01*
X124028167Y-46007028D01*
X123957824Y-45991967D01*
X123863052Y-45973549D01*
X123741055Y-45951250D01*
X123589038Y-45924549D01*
X123404206Y-45892925D01*
X123183764Y-45855857D01*
X122924916Y-45812821D01*
X122862583Y-45802508D01*
X122086753Y-45678829D01*
X121327218Y-45567306D01*
X120577074Y-45467232D01*
X119829417Y-45377898D01*
X119077343Y-45298598D01*
X118313951Y-45228624D01*
X117532334Y-45167269D01*
X116725591Y-45113825D01*
X115886817Y-45067585D01*
X115517750Y-45049887D01*
X115326638Y-45042406D01*
X115099031Y-45035693D01*
X114840758Y-45029781D01*
X114557652Y-45024704D01*
X114255543Y-45020496D01*
X113940262Y-45017191D01*
X113617641Y-45014824D01*
X113293510Y-45013427D01*
X112973700Y-45013034D01*
X112664043Y-45013681D01*
X112370370Y-45015401D01*
X112098511Y-45018228D01*
X111854298Y-45022195D01*
X111644250Y-45027317D01*
X110505983Y-45070249D01*
X109398678Y-45130529D01*
X108314342Y-45208929D01*
X107244985Y-45306221D01*
X106182614Y-45423177D01*
X105119236Y-45560570D01*
X104046861Y-45719173D01*
X103399833Y-45824160D01*
X103147096Y-45866673D01*
X102933271Y-45903097D01*
X102755459Y-45933981D01*
X102610763Y-45959875D01*
X102496284Y-45981331D01*
X102409124Y-45998898D01*
X102346387Y-46013127D01*
X102305173Y-46024569D01*
X102282585Y-46033773D01*
X102277782Y-46037274D01*
X102258608Y-46066871D01*
X102223880Y-46131561D01*
X102175258Y-46227761D01*
X102114402Y-46351890D01*
X102042973Y-46500365D01*
X101962630Y-46669604D01*
X101875035Y-46856024D01*
X101781847Y-47056044D01*
X101684726Y-47266082D01*
X101585334Y-47482554D01*
X101485330Y-47701879D01*
X101386375Y-47920475D01*
X101290128Y-48134759D01*
X101198251Y-48341149D01*
X101112403Y-48536063D01*
X101034245Y-48715918D01*
X101008434Y-48776000D01*
X100453302Y-50124497D01*
X99938224Y-51483150D01*
X99463020Y-52852714D01*
X99027510Y-54233947D01*
X98631515Y-55627604D01*
X98274856Y-57034441D01*
X97957352Y-58455215D01*
X97678824Y-59890681D01*
X97439094Y-61341595D01*
X97237980Y-62808714D01*
X97075304Y-64292794D01*
X96950886Y-65794590D01*
X96944363Y-65889250D01*
X96924032Y-66219692D01*
X96905565Y-66583426D01*
X96889066Y-66974279D01*
X96874636Y-67386077D01*
X96862380Y-67812649D01*
X96852400Y-68247820D01*
X96844800Y-68685419D01*
X96839683Y-69119272D01*
X96837153Y-69543207D01*
X95355656Y-69543207D01*
X95525833Y-69289605D01*
X95525842Y-69039344D01*
X95527110Y-68910169D01*
X95530745Y-68744898D01*
X95536507Y-68549688D01*
X95544156Y-68330695D01*
X95553451Y-68094076D01*
X95564153Y-67845989D01*
X95576022Y-67592590D01*
X95588817Y-67340035D01*
X95600418Y-67127500D01*
X95697012Y-65721025D01*
X95827390Y-64313133D01*
X95990954Y-62906445D01*
X96187110Y-61503580D01*
X96415263Y-60107159D01*
X96674815Y-58719802D01*
X96965172Y-57344130D01*
X97285737Y-55982762D01*
X97635916Y-54638319D01*
X98015112Y-53313422D01*
X98422729Y-52010689D01*
X98858173Y-50732743D01*
X99320847Y-49482202D01*
X99810155Y-48261688D01*
X99981953Y-47855250D01*
X100440144Y-46822725D01*
X100928012Y-45795590D01*
X101446629Y-44772073D01*
X101737085Y-44232955D01*
X103221063Y-44232955D01*
X103233555Y-44242889D01*
X103270659Y-44242410D01*
X103338066Y-44232591D01*
X103441470Y-44214509D01*
X103442167Y-44214385D01*
X103543860Y-44197222D01*
X103680887Y-44175382D01*
X103846625Y-44149829D01*
X104034451Y-44121530D01*
X104237744Y-44091449D01*
X104449881Y-44060554D01*
X104664240Y-44029809D01*
X104874198Y-44000180D01*
X105073133Y-43972632D01*
X105254424Y-43948131D01*
X105389500Y-43930448D01*
X105969740Y-43858546D01*
X106539303Y-43793345D01*
X107104873Y-43734281D01*
X107673134Y-43680790D01*
X108250770Y-43632309D01*
X108844465Y-43588274D01*
X109460904Y-43548122D01*
X110106770Y-43511289D01*
X110734083Y-43479784D01*
X110876626Y-43474311D01*
X111057076Y-43469444D01*
X111271009Y-43465182D01*
X111514002Y-43461527D01*
X111781634Y-43458477D01*
X112069480Y-43456034D01*
X112373119Y-43454197D01*
X112688128Y-43452966D01*
X113010084Y-43452341D01*
X113334563Y-43452322D01*
X113657144Y-43452910D01*
X113973404Y-43454105D01*
X114278919Y-43455905D01*
X114569267Y-43458313D01*
X114840026Y-43461327D01*
X115086772Y-43464947D01*
X115305083Y-43469174D01*
X115490536Y-43474008D01*
X115638708Y-43479449D01*
X115644750Y-43479723D01*
X116586723Y-43528004D01*
X117493743Y-43585207D01*
X118372372Y-43651981D01*
X119229173Y-43728974D01*
X120070710Y-43816836D01*
X120903546Y-43916216D01*
X121734244Y-44027761D01*
X122569366Y-44152121D01*
X122775187Y-44184585D01*
X122899680Y-44204074D01*
X123008950Y-44220497D01*
X123096477Y-44232932D01*
X123155739Y-44240453D01*
X123180215Y-44242136D01*
X123180462Y-44242007D01*
X123171799Y-44222815D01*
X123144489Y-44171402D01*
X123101016Y-44092233D01*
X123043860Y-43989771D01*
X122975503Y-43868479D01*
X122898427Y-43732822D01*
X122859254Y-43664250D01*
X122135434Y-42430690D01*
X121398768Y-41237304D01*
X120649107Y-40083882D01*
X119886303Y-38970215D01*
X119110207Y-37896091D01*
X118320669Y-36861300D01*
X117517540Y-35865633D01*
X116700671Y-34908879D01*
X116440551Y-34615599D01*
X116290209Y-34449476D01*
X116127026Y-34272456D01*
X115953989Y-34087555D01*
X115774088Y-33897789D01*
X115590309Y-33706174D01*
X115405643Y-33515729D01*
X115223078Y-33329468D01*
X115045601Y-33150409D01*
X114876201Y-32981568D01*
X114717867Y-32825962D01*
X114573588Y-32686607D01*
X114446351Y-32566520D01*
X114339145Y-32468717D01*
X114254958Y-32396215D01*
X114200617Y-32354594D01*
X113971919Y-32214502D01*
X113750761Y-32111681D01*
X113533232Y-32046056D01*
X113315416Y-32017551D01*
X113093402Y-32026091D01*
X112863276Y-32071600D01*
X112621124Y-32154005D01*
X112363033Y-32273228D01*
X112279250Y-32317611D01*
X112231290Y-32344435D01*
X112186596Y-32371732D01*
X112141706Y-32402609D01*
X112093158Y-32440177D01*
X112037493Y-32487541D01*
X111971247Y-32547811D01*
X111890960Y-32624094D01*
X111793171Y-32719498D01*
X111674418Y-32837132D01*
X111531239Y-32980103D01*
X111442873Y-33068612D01*
X110642875Y-33894366D01*
X109850970Y-34759599D01*
X109068965Y-35661925D01*
X108298666Y-36598957D01*
X107541879Y-37568312D01*
X106800410Y-38567603D01*
X106076067Y-39594444D01*
X105370654Y-40646451D01*
X104685979Y-41721237D01*
X104023847Y-42816418D01*
X103893037Y-43039833D01*
X103807684Y-43187139D01*
X103716754Y-43345327D01*
X103626707Y-43503076D01*
X103544000Y-43649065D01*
X103475092Y-43771971D01*
X103464386Y-43791250D01*
X103403108Y-43901483D01*
X103345981Y-44003646D01*
X103297421Y-44089888D01*
X103261846Y-44152355D01*
X103247146Y-44177542D01*
X103227490Y-44211531D01*
X103221063Y-44232955D01*
X101737085Y-44232955D01*
X101997065Y-43750405D01*
X102580392Y-42728813D01*
X103197679Y-41705525D01*
X103849997Y-40678771D01*
X104538417Y-39646779D01*
X105264009Y-38607778D01*
X106027844Y-37559996D01*
X106830993Y-36501661D01*
X106890177Y-36425250D01*
X107422231Y-35746183D01*
X107936501Y-35104002D01*
X108433913Y-34497620D01*
X108915399Y-33925951D01*
X109381885Y-33387909D01*
X109834300Y-32882407D01*
X110273575Y-32408358D01*
X110700636Y-31964677D01*
X110719505Y-31945485D01*
X110890816Y-31773220D01*
X111039415Y-31628465D01*
X111170632Y-31507019D01*
X111289801Y-31404681D01*
X111402253Y-31317250D01*
X111513319Y-31240524D01*
X111628332Y-31170302D01*
X111752624Y-31102383D01*
X111855917Y-31050043D01*
X112191415Y-30902758D01*
X112520932Y-30795985D01*
X112847697Y-30728912D01*
X113174935Y-30700733D01*
X113252917Y-30699667D01*
X113584798Y-30719884D01*
X113911088Y-30780801D01*
X114233012Y-30882815D01*
X114551794Y-31026322D01*
X114868657Y-31211718D01*
X114903081Y-31234442D01*
X115003633Y-31308823D01*
X115128880Y-31413677D01*
X115276667Y-31546747D01*
X115444840Y-31705777D01*
X115631245Y-31888509D01*
X115833726Y-32092687D01*
X116050129Y-32316056D01*
X116278300Y-32556357D01*
X116516083Y-32811335D01*
X116761325Y-33078732D01*
X117011870Y-33356293D01*
X117265564Y-33641761D01*
X117520252Y-33932878D01*
X117773781Y-34227390D01*
X117879884Y-34352126D01*
X118744679Y-35393119D01*
X119576344Y-36436056D01*
X120373798Y-37479405D01*
X121135960Y-38521639D01*
X121861750Y-39561227D01*
X122550089Y-40596640D01*
X123199895Y-41626348D01*
X123810089Y-42648823D01*
X124105589Y-43166833D01*
X124445122Y-43783398D01*
X124787930Y-44428712D01*
X125129865Y-45094270D01*
X125466777Y-45771563D01*
X125794520Y-46452085D01*
X126108944Y-47127329D01*
X126405902Y-47788787D01*
X126681244Y-48427953D01*
X126742840Y-48575144D01*
X127292250Y-49950941D01*
X127802957Y-51343681D01*
X128274828Y-52752864D01*
X128707731Y-54177987D01*
X129101534Y-55618549D01*
X129456105Y-57074049D01*
X129771311Y-58543985D01*
X130047020Y-60027854D01*
X130283101Y-61525157D01*
X130417551Y-62523750D01*
X130508957Y-63291685D01*
X130588561Y-64047679D01*
X130656995Y-64800236D01*
X130714891Y-65557864D01*
X130762881Y-66329068D01*
X130801597Y-67122354D01*
X130831670Y-67946229D01*
X130838985Y-68196417D01*
X130863583Y-69085417D01*
X134143294Y-74059583D01*
X134422213Y-74482607D01*
X134697063Y-74899466D01*
X134966793Y-75308565D01*
X135230351Y-75708308D01*
X135486685Y-76097099D01*
X135734742Y-76473343D01*
X135973472Y-76835444D01*
X136201822Y-77181807D01*
X136418740Y-77510835D01*
X136623174Y-77820934D01*
X136814073Y-78110506D01*
X136990384Y-78377958D01*
X137151055Y-78621693D01*
X137295034Y-78840115D01*
X137421270Y-79031629D01*
X137528711Y-79194639D01*
X137616304Y-79327549D01*
X137682997Y-79428764D01*
X137727740Y-79496688D01*
X137736336Y-79509745D01*
X138049667Y-79985741D01*
X138049667Y-96935458D01*
X137991458Y-96923750D01*
X137968207Y-96917460D01*
X137910626Y-96901022D01*
X137818467Y-96874364D01*
X137691479Y-96837412D01*
X137529414Y-96790092D01*
X137332022Y-96732332D01*
X137099055Y-96664057D01*
X136830262Y-96585195D01*
X136525395Y-96495673D01*
X136184204Y-96395416D01*
X135806441Y-96284351D01*
X135391855Y-96162406D01*
X134940198Y-96029506D01*
X134451221Y-95885579D01*
X133924673Y-95730551D01*
X133360307Y-95564348D01*
X132757873Y-95386898D01*
X132117120Y-95198127D01*
X131437802Y-94997961D01*
X130719667Y-94786328D01*
X129962466Y-94563154D01*
X129165952Y-94328365D01*
X128329873Y-94081889D01*
X127453982Y-93823651D01*
X126538028Y-93553579D01*
X125581763Y-93271599D01*
X125430655Y-93227039D01*
X124442727Y-92935709D01*
X123708213Y-93100136D01*
X123537137Y-93139042D01*
X123378680Y-93176249D01*
X123237718Y-93210521D01*
X123119128Y-93240623D01*
X123027788Y-93265321D01*
X122968574Y-93283380D01*
X122946808Y-93292906D01*
X122935141Y-93318229D01*
X122912081Y-93379874D01*
X122878996Y-93473799D01*
X122837252Y-93595961D01*
X122788213Y-93742317D01*
X122733248Y-93908825D01*
X122673722Y-94091443D01*
X122611001Y-94286127D01*
X122608186Y-94294917D01*
X122468628Y-94728958D01*
X122339526Y-95126309D01*
X122219462Y-95490914D01*
X122107023Y-95826717D01*
X122000791Y-96137663D01*
X121899351Y-96427696D01*
X121801286Y-96700760D01*
X121705182Y-96960800D01*
X121609621Y-97211760D01*
X121513188Y-97457585D01*
X121414467Y-97702218D01*
X121312042Y-97949605D01*
X121207776Y-98196015D01*
X121124318Y-98389396D01*
X121053412Y-98548491D01*
X120992287Y-98678474D01*
X120938173Y-98784523D01*
X120888301Y-98871813D01*
X120839900Y-98945520D01*
X120790199Y-99010821D01*
X120741432Y-99067385D01*
X120673972Y-99137221D01*
X120604499Y-99197601D01*
X120527960Y-99250726D01*
X120439303Y-99298795D01*
X120333472Y-99344006D01*
X120205417Y-99388559D01*
X120050082Y-99434653D01*
X119862415Y-99484488D01*
X119676933Y-99530642D01*
X119488869Y-99575455D01*
X119271615Y-99625442D01*
X119032494Y-99679051D01*
X118778824Y-99734727D01*
X118517927Y-99790917D01*
X118257124Y-99846068D01*
X118003735Y-99898626D01*
X117765081Y-99947037D01*
X117548482Y-99989748D01*
X117361259Y-100025205D01*
X117264000Y-100042714D01*
X117122803Y-100067628D01*
X116994610Y-100090582D01*
X116885613Y-100110440D01*
X116802007Y-100126066D01*
X116749983Y-100136325D01*
X116736162Y-100139537D01*
X116739562Y-100153145D01*
X116775100Y-100182019D01*
X116837260Y-100222069D01*
X116884328Y-100249364D01*
X117196059Y-100435193D01*
X117483123Y-100630665D01*
X117756298Y-100844004D01*
X118026362Y-101083433D01*
X118206529Y-101258137D01*
X118452844Y-101515345D01*
X118667965Y-101765021D01*
X118859182Y-102017270D01*
X119033788Y-102282196D01*
X119199072Y-102569904D01*
X119315536Y-102795099D01*
X119484585Y-103161766D01*
X119623658Y-103524890D01*
X119739392Y-103902181D01*
X119761654Y-103986039D01*
X119833903Y-104284577D01*
X119890101Y-104563944D01*
X119931684Y-104835820D01*
X119960089Y-105111881D01*
X119976750Y-105403806D01*
X119983105Y-105723272D01*
X119983266Y-105788417D01*
X119982705Y-105967844D01*
X119980665Y-106113801D01*
X119976631Y-106235141D01*
X119970087Y-106340717D01*
X119960517Y-106439381D01*
X119947405Y-106539986D01*
X119934546Y-106624500D01*
X119868415Y-106995879D01*
X119786055Y-107377100D01*
X119686366Y-107771824D01*
X119568247Y-108183708D01*
X119430596Y-108616411D01*
X119272314Y-109073593D01*
X119092298Y-109558912D01*
X118915434Y-110011167D01*
X118673640Y-110598330D01*
X118405805Y-111215147D01*
X118113300Y-111859011D01*
X117797493Y-112527314D01*
X117459753Y-113217448D01*
X117101449Y-113926806D01*
X116723952Y-114652780D01*
X116328629Y-115392763D01*
X115916852Y-116144146D01*
X115489988Y-116904322D01*
X115049407Y-117670684D01*
X114596478Y-118440624D01*
X114132571Y-119211535D01*
X113797051Y-119758417D01*
X113692349Y-119927752D01*
X113593291Y-120088045D01*
X113502362Y-120235267D01*
X113422048Y-120365390D01*
X113354832Y-120474388D01*
X113303201Y-120558233D01*
X113269639Y-120612898D01*
X113258290Y-120631542D01*
X113227799Y-120676003D01*
X113204406Y-120699318D01*
X113201072Y-120700333D01*
X113185225Y-120683224D01*
X113151408Y-120635853D01*
X113103603Y-120564155D01*
X113045794Y-120474067D01*
X112998703Y-120398708D01*
X112810765Y-120094508D01*
X112643019Y-119822582D01*
X112493249Y-119579290D01*
X112359237Y-119360993D01*
X112238766Y-119164050D01*
X112129619Y-118984821D01*
X112029576Y-118819666D01*
X111936423Y-118664944D01*
X111847939Y-118517015D01*
X111761909Y-118372239D01*
X111686734Y-118245000D01*
X111219249Y-117443211D01*
X110769803Y-116655012D01*
X110339005Y-115881683D01*
X109927464Y-115124505D01*
X109535791Y-114384758D01*
X109164595Y-113663723D01*
X108814486Y-112962680D01*
X108486074Y-112282909D01*
X108179969Y-111625692D01*
X107896780Y-110992307D01*
X107637118Y-110384036D01*
X107401592Y-109802159D01*
X107190811Y-109247957D01*
X107005387Y-108722709D01*
X106845928Y-108227697D01*
X106736566Y-107851044D01*
X106640339Y-107484387D01*
X106562248Y-107148808D01*
X106501329Y-106837604D01*
X106456619Y-106544074D01*
X106427154Y-106261516D01*
X106411969Y-105983227D01*
X106410101Y-105702506D01*
X106412554Y-105597917D01*
X106444819Y-105074915D01*
X106509017Y-104576720D01*
X106606154Y-104099233D01*
X106737234Y-103638358D01*
X106903260Y-103189996D01*
X107105238Y-102750048D01*
X107115605Y-102729564D01*
X107296603Y-102397232D01*
X107489623Y-102091874D01*
X107702062Y-101803332D01*
X107941318Y-101521448D01*
X108172752Y-101278030D01*
X108435241Y-101025714D01*
X108692381Y-100803740D01*
X108955391Y-100603496D01*
X109235488Y-100416368D01*
X109501882Y-100257488D01*
X109687848Y-100151681D01*
X109586549Y-100139726D01*
X109512354Y-100131822D01*
X109417173Y-100122818D01*
X109326500Y-100115067D01*
X108978799Y-100080425D01*
X108619587Y-100032031D01*
X108263357Y-99972242D01*
X107924601Y-99903418D01*
X107707250Y-99851542D01*
X107625033Y-99829706D01*
X107514364Y-99799117D01*
X107380126Y-99761219D01*
X107227206Y-99717454D01*
X107060490Y-99669267D01*
X106884862Y-99618101D01*
X106705209Y-99565398D01*
X106526415Y-99512603D01*
X106353367Y-99461159D01*
X106190949Y-99412508D01*
X106044048Y-99368095D01*
X105917548Y-99329363D01*
X105816336Y-99297754D01*
X105745296Y-99274713D01*
X105709315Y-99261683D01*
X105707211Y-99260664D01*
X105689096Y-99237040D01*
X105656598Y-99180869D01*
X105612858Y-99098139D01*
X105561016Y-98994840D01*
X105504211Y-98876959D01*
X105488509Y-98843576D01*
X105265166Y-98353374D01*
X105039360Y-97831963D01*
X104810493Y-97277798D01*
X104577965Y-96689333D01*
X104341177Y-96065025D01*
X104099530Y-95403328D01*
X103852423Y-94702697D01*
X103633143Y-94062083D01*
X103574409Y-93889030D01*
X104973414Y-93889030D01*
X104977036Y-93911387D01*
X104993188Y-93969089D01*
X105020324Y-94057559D01*
X105056896Y-94172215D01*
X105101360Y-94308481D01*
X105152168Y-94461776D01*
X105207776Y-94627522D01*
X105266636Y-94801139D01*
X105327204Y-94978049D01*
X105387932Y-95153672D01*
X105447275Y-95323430D01*
X105503686Y-95482743D01*
X105555620Y-95627032D01*
X105601531Y-95751718D01*
X105609499Y-95772957D01*
X105673576Y-95941112D01*
X105745651Y-96126883D01*
X105820283Y-96316457D01*
X105892027Y-96496024D01*
X105955441Y-96651772D01*
X105964028Y-96672540D01*
X106014099Y-96791711D01*
X106072455Y-96927908D01*
X106136838Y-97076108D01*
X106204989Y-97231287D01*
X106274649Y-97388420D01*
X106343558Y-97542483D01*
X106409460Y-97688451D01*
X106470094Y-97821301D01*
X106523201Y-97936008D01*
X106566524Y-98027548D01*
X106597803Y-98090897D01*
X106614779Y-98121029D01*
X106615748Y-98122174D01*
X106645719Y-98136447D01*
X106712308Y-98157985D01*
X106810644Y-98185649D01*
X106935854Y-98218298D01*
X107083067Y-98254792D01*
X107247410Y-98293992D01*
X107424011Y-98334756D01*
X107607998Y-98375946D01*
X107794499Y-98416421D01*
X107978643Y-98455040D01*
X108155556Y-98490665D01*
X108320368Y-98522155D01*
X108342250Y-98526178D01*
X108767458Y-98598710D01*
X109232671Y-98668215D01*
X109735649Y-98734441D01*
X110274154Y-98797138D01*
X110845947Y-98856055D01*
X111448792Y-98910939D01*
X112080448Y-98961540D01*
X112469750Y-98989561D01*
X112585006Y-98995181D01*
X112734326Y-98998911D01*
X112909487Y-99000832D01*
X113102264Y-99001027D01*
X113304434Y-98999581D01*
X113507773Y-98996574D01*
X113704059Y-98992091D01*
X113885067Y-98986214D01*
X114042574Y-98979027D01*
X114141917Y-98972707D01*
X114652781Y-98933237D01*
X115125151Y-98894217D01*
X115562855Y-98855182D01*
X115969723Y-98815665D01*
X116349582Y-98775198D01*
X116706263Y-98733317D01*
X117043594Y-98689553D01*
X117365404Y-98643440D01*
X117675521Y-98594512D01*
X117977775Y-98542302D01*
X118275995Y-98486344D01*
X118498447Y-98441813D01*
X118638147Y-98412371D01*
X118790524Y-98378948D01*
X118949668Y-98342970D01*
X119109668Y-98305860D01*
X119264613Y-98269044D01*
X119408592Y-98233946D01*
X119535695Y-98201991D01*
X119640011Y-98174604D01*
X119715628Y-98153208D01*
X119756637Y-98139228D01*
X119759304Y-98137931D01*
X119782344Y-98110518D01*
X119819297Y-98047358D01*
X119868573Y-97952098D01*
X119928581Y-97828385D01*
X119997733Y-97679866D01*
X120074438Y-97510187D01*
X120157107Y-97322994D01*
X120244151Y-97121934D01*
X120333979Y-96910654D01*
X120425002Y-96692800D01*
X120515631Y-96472020D01*
X120604276Y-96251958D01*
X120689346Y-96036263D01*
X120769254Y-95828581D01*
X120790336Y-95772762D01*
X120835016Y-95651974D01*
X120886009Y-95510781D01*
X120941769Y-95353759D01*
X121000747Y-95185485D01*
X121061398Y-95010534D01*
X121122174Y-94833483D01*
X121181529Y-94658909D01*
X121237916Y-94491386D01*
X121289787Y-94335492D01*
X121335597Y-94195804D01*
X121373798Y-94076896D01*
X121402843Y-93983345D01*
X121421186Y-93919729D01*
X121427279Y-93890622D01*
X121426946Y-93889391D01*
X121404604Y-93890399D01*
X121345926Y-93897635D01*
X121256324Y-93910304D01*
X121141209Y-93927610D01*
X121005992Y-93948759D01*
X120856084Y-93972957D01*
X120838624Y-93975821D01*
X119467568Y-94182304D01*
X118108781Y-94349003D01*
X116760067Y-94475917D01*
X115419227Y-94563045D01*
X114084065Y-94610388D01*
X112752384Y-94617946D01*
X111421985Y-94585718D01*
X110090674Y-94513705D01*
X108756251Y-94401906D01*
X107416520Y-94250322D01*
X106069284Y-94058951D01*
X105551033Y-93975151D01*
X105401310Y-93950501D01*
X105265699Y-93928876D01*
X105149662Y-93911089D01*
X105058660Y-93897956D01*
X104998157Y-93890290D01*
X104973613Y-93888906D01*
X104973414Y-93889030D01*
X103574409Y-93889030D01*
X103572556Y-93883571D01*
X103515634Y-93717432D01*
G36*
X113199418Y-85140412D02*
G01*
X114005282Y-85140420D01*
X114769904Y-85140434D01*
X115494373Y-85140458D01*
X116179780Y-85140496D01*
X116827216Y-85140552D01*
X117437771Y-85140632D01*
X118012535Y-85140738D01*
X118552600Y-85140874D01*
X119059055Y-85141046D01*
X119532991Y-85141258D01*
X119975499Y-85141512D01*
X120387668Y-85141814D01*
X120770590Y-85142168D01*
X121125355Y-85142578D01*
X121453053Y-85143047D01*
X121754775Y-85143581D01*
X122031612Y-85144183D01*
X122284653Y-85144857D01*
X122514990Y-85145608D01*
X122723713Y-85146440D01*
X122911912Y-85147356D01*
X123080677Y-85148362D01*
X123231100Y-85149460D01*
X123364271Y-85150656D01*
X123481280Y-85151954D01*
X123583217Y-85153357D01*
X123671174Y-85154870D01*
X123746241Y-85156497D01*
X123809507Y-85158242D01*
X123862065Y-85160109D01*
X123905003Y-85162103D01*
X123939413Y-85164227D01*
X123966385Y-85166486D01*
X123987010Y-85168884D01*
X124002377Y-85171424D01*
X124013578Y-85174112D01*
X124021704Y-85176951D01*
X124027843Y-85179946D01*
X124030743Y-85181645D01*
X124095536Y-85243147D01*
X124127659Y-85322214D01*
X124126414Y-85408662D01*
X124091102Y-85492307D01*
X124055016Y-85535254D01*
X123992220Y-85595417D01*
X113225068Y-85599070D01*
X112551757Y-85599275D01*
X111888996Y-85599433D01*
X111238046Y-85599544D01*
X110600169Y-85599610D01*
X109976626Y-85599630D01*
X109368679Y-85599605D01*
X108777589Y-85599538D01*
X108204617Y-85599429D01*
X107651025Y-85599278D01*
X107118075Y-85599086D01*
X106607027Y-85598855D01*
X106119143Y-85598586D01*
X105655685Y-85598279D01*
X105217913Y-85597935D01*
X104807090Y-85597555D01*
X104424476Y-85597140D01*
X104071334Y-85596692D01*
X103748923Y-85596210D01*
X103458507Y-85595697D01*
X103201346Y-85595152D01*
X102978702Y-85594577D01*
X102791835Y-85593972D01*
X102642009Y-85593340D01*
X102530483Y-85592679D01*
X102458519Y-85591993D01*
X102427379Y-85591280D01*
X102426167Y-85591137D01*
X102390098Y-85569526D01*
X102343165Y-85531677D01*
X102336208Y-85525316D01*
X102297449Y-85479635D01*
X102281007Y-85426974D01*
X102278673Y-85374498D01*
X102286855Y-85292618D01*
X102316071Y-85234148D01*
X102375401Y-85181889D01*
X102383251Y-85176403D01*
X102388831Y-85173697D01*
X102398234Y-85171129D01*
X102412541Y-85168695D01*
X102432836Y-85166393D01*
X102460200Y-85164218D01*
X102495715Y-85162168D01*
X102540464Y-85160237D01*
X102595528Y-85158423D01*
X102661990Y-85156723D01*
X102740932Y-85155132D01*
X102833435Y-85153647D01*
X102940582Y-85152264D01*
X103063455Y-85150980D01*
X103203136Y-85149791D01*
X103360707Y-85148693D01*
X103537250Y-85147684D01*
X103733848Y-85146758D01*
X103951582Y-85145914D01*
X104191534Y-85145146D01*
X104454787Y-85144452D01*
X104742422Y-85143828D01*
X105055522Y-85143271D01*
X105395169Y-85142776D01*
X105762445Y-85142340D01*
X106158432Y-85141960D01*
X106584212Y-85141631D01*
X107040867Y-85141351D01*
X107529479Y-85141116D01*
X108051131Y-85140922D01*
X108606904Y-85140765D01*
X109197880Y-85140642D01*
X109825143Y-85140550D01*
X110489772Y-85140484D01*
X111192852Y-85140441D01*
X111935463Y-85140418D01*
X112718689Y-85140411D01*
X113199418Y-85140412D01*
G37*
X113199418Y-85140412D02*
X114005282Y-85140420D01*
X114769904Y-85140434D01*
X115494373Y-85140458D01*
X116179780Y-85140496D01*
X116827216Y-85140552D01*
X117437771Y-85140632D01*
X118012535Y-85140738D01*
X118552600Y-85140874D01*
X119059055Y-85141046D01*
X119532991Y-85141258D01*
X119975499Y-85141512D01*
X120387668Y-85141814D01*
X120770590Y-85142168D01*
X121125355Y-85142578D01*
X121453053Y-85143047D01*
X121754775Y-85143581D01*
X122031612Y-85144183D01*
X122284653Y-85144857D01*
X122514990Y-85145608D01*
X122723713Y-85146440D01*
X122911912Y-85147356D01*
X123080677Y-85148362D01*
X123231100Y-85149460D01*
X123364271Y-85150656D01*
X123481280Y-85151954D01*
X123583217Y-85153357D01*
X123671174Y-85154870D01*
X123746241Y-85156497D01*
X123809507Y-85158242D01*
X123862065Y-85160109D01*
X123905003Y-85162103D01*
X123939413Y-85164227D01*
X123966385Y-85166486D01*
X123987010Y-85168884D01*
X124002377Y-85171424D01*
X124013578Y-85174112D01*
X124021704Y-85176951D01*
X124027843Y-85179946D01*
X124030743Y-85181645D01*
X124095536Y-85243147D01*
X124127659Y-85322214D01*
X124126414Y-85408662D01*
X124091102Y-85492307D01*
X124055016Y-85535254D01*
X123992220Y-85595417D01*
X113225068Y-85599070D01*
X112551757Y-85599275D01*
X111888996Y-85599433D01*
X111238046Y-85599544D01*
X110600169Y-85599610D01*
X109976626Y-85599630D01*
X109368679Y-85599605D01*
X108777589Y-85599538D01*
X108204617Y-85599429D01*
X107651025Y-85599278D01*
X107118075Y-85599086D01*
X106607027Y-85598855D01*
X106119143Y-85598586D01*
X105655685Y-85598279D01*
X105217913Y-85597935D01*
X104807090Y-85597555D01*
X104424476Y-85597140D01*
X104071334Y-85596692D01*
X103748923Y-85596210D01*
X103458507Y-85595697D01*
X103201346Y-85595152D01*
X102978702Y-85594577D01*
X102791835Y-85593972D01*
X102642009Y-85593340D01*
X102530483Y-85592679D01*
X102458519Y-85591993D01*
X102427379Y-85591280D01*
X102426167Y-85591137D01*
X102390098Y-85569526D01*
X102343165Y-85531677D01*
X102336208Y-85525316D01*
X102297449Y-85479635D01*
X102281007Y-85426974D01*
X102278673Y-85374498D01*
X102286855Y-85292618D01*
X102316071Y-85234148D01*
X102375401Y-85181889D01*
X102383251Y-85176403D01*
X102388831Y-85173697D01*
X102398234Y-85171129D01*
X102412541Y-85168695D01*
X102432836Y-85166393D01*
X102460200Y-85164218D01*
X102495715Y-85162168D01*
X102540464Y-85160237D01*
X102595528Y-85158423D01*
X102661990Y-85156723D01*
X102740932Y-85155132D01*
X102833435Y-85153647D01*
X102940582Y-85152264D01*
X103063455Y-85150980D01*
X103203136Y-85149791D01*
X103360707Y-85148693D01*
X103537250Y-85147684D01*
X103733848Y-85146758D01*
X103951582Y-85145914D01*
X104191534Y-85145146D01*
X104454787Y-85144452D01*
X104742422Y-85143828D01*
X105055522Y-85143271D01*
X105395169Y-85142776D01*
X105762445Y-85142340D01*
X106158432Y-85141960D01*
X106584212Y-85141631D01*
X107040867Y-85141351D01*
X107529479Y-85141116D01*
X108051131Y-85140922D01*
X108606904Y-85140765D01*
X109197880Y-85140642D01*
X109825143Y-85140550D01*
X110489772Y-85140484D01*
X111192852Y-85140441D01*
X111935463Y-85140418D01*
X112718689Y-85140411D01*
X113199418Y-85140412D01*
G36*
X113517755Y-55680455D02*
G01*
X113756805Y-55688291D01*
X113970271Y-55700687D01*
X114059142Y-55708143D01*
X114669419Y-55786632D01*
X115267961Y-55904978D01*
X115853206Y-56061946D01*
X116423592Y-56256299D01*
X116977556Y-56486802D01*
X117513539Y-56752220D01*
X118029977Y-57051318D01*
X118525310Y-57382858D01*
X118997975Y-57745607D01*
X119446410Y-58138327D01*
X119869055Y-58559785D01*
X120264347Y-59008743D01*
X120630724Y-59483967D01*
X120966625Y-59984220D01*
X121270488Y-60508268D01*
X121540752Y-61054874D01*
X121775854Y-61622804D01*
X121871041Y-61888750D01*
X122050973Y-62480666D01*
X122189628Y-63076640D01*
X122287647Y-63674884D01*
X122345673Y-64273610D01*
X122364348Y-64871030D01*
X122344314Y-65465354D01*
X122286213Y-66054795D01*
X122190687Y-66637565D01*
X122058378Y-67211874D01*
X121889927Y-67775935D01*
X121685978Y-68327959D01*
X121447172Y-68866158D01*
X121174151Y-69388743D01*
X120867557Y-69893926D01*
X120528032Y-70379919D01*
X120156219Y-70844933D01*
X119752759Y-71287180D01*
X119318294Y-71704872D01*
X118853466Y-72096220D01*
X118358917Y-72459436D01*
X117990022Y-72699308D01*
X117450456Y-73008089D01*
X116896851Y-73277099D01*
X116328713Y-73506501D01*
X115745551Y-73696461D01*
X115146871Y-73847143D01*
X114532181Y-73958713D01*
X114046667Y-74018167D01*
X113920267Y-74027623D01*
X113760543Y-74035119D01*
X113576460Y-74040614D01*
X113376983Y-74044066D01*
X113171077Y-74045434D01*
X112967708Y-74044676D01*
X112775841Y-74041751D01*
X112604440Y-74036617D01*
X112462473Y-74029232D01*
X112416833Y-74025717D01*
X111801898Y-73951361D01*
X111197469Y-73836480D01*
X110605144Y-73681935D01*
X110026521Y-73488587D01*
X109463199Y-73257297D01*
X108916776Y-72988925D01*
X108388850Y-72684333D01*
X107881019Y-72344381D01*
X107394880Y-71969929D01*
X106932034Y-71561840D01*
X106494076Y-71120972D01*
X106082607Y-70648188D01*
X106033712Y-70587635D01*
X105678055Y-70110385D01*
X105352599Y-69605782D01*
X105059295Y-69077999D01*
X104800094Y-68531213D01*
X104576948Y-67969599D01*
X104391808Y-67397332D01*
X104246627Y-66818587D01*
X104226100Y-66720056D01*
X104172106Y-66438364D01*
X104129327Y-66179264D01*
X104096730Y-65931944D01*
X104073279Y-65685587D01*
X104057941Y-65429379D01*
X104049681Y-65152506D01*
X104047456Y-64852083D01*
X104049206Y-64593362D01*
X104054431Y-64366549D01*
X104063964Y-64161306D01*
X104078635Y-63967289D01*
X104099277Y-63774158D01*
X104126721Y-63571572D01*
X104161797Y-63349189D01*
X104174257Y-63275167D01*
X104297100Y-62678930D01*
X104459970Y-62093966D01*
X104661603Y-61522212D01*
X104900735Y-60965605D01*
X105176101Y-60426085D01*
X105486438Y-59905589D01*
X105830482Y-59406054D01*
X106206967Y-58929420D01*
X106614630Y-58477624D01*
X107052206Y-58052604D01*
X107518432Y-57656298D01*
X108012043Y-57290644D01*
X108130583Y-57210236D01*
X108665446Y-56878184D01*
X109214282Y-56586008D01*
X109776740Y-56333834D01*
X110352468Y-56121788D01*
X110941113Y-55949995D01*
X111542323Y-55818582D01*
X112155748Y-55727674D01*
X112330841Y-55709382D01*
X112529772Y-55694543D01*
X112759131Y-55684222D01*
X113007716Y-55678429D01*
X113264325Y-55677171D01*
X113517755Y-55680455D01*
G37*
X113517755Y-55680455D02*
X113756805Y-55688291D01*
X113970271Y-55700687D01*
X114059142Y-55708143D01*
X114669419Y-55786632D01*
X115267961Y-55904978D01*
X115853206Y-56061946D01*
X116423592Y-56256299D01*
X116977556Y-56486802D01*
X117513539Y-56752220D01*
X118029977Y-57051318D01*
X118525310Y-57382858D01*
X118997975Y-57745607D01*
X119446410Y-58138327D01*
X119869055Y-58559785D01*
X120264347Y-59008743D01*
X120630724Y-59483967D01*
X120966625Y-59984220D01*
X121270488Y-60508268D01*
X121540752Y-61054874D01*
X121775854Y-61622804D01*
X121871041Y-61888750D01*
X122050973Y-62480666D01*
X122189628Y-63076640D01*
X122287647Y-63674884D01*
X122345673Y-64273610D01*
X122364348Y-64871030D01*
X122344314Y-65465354D01*
X122286213Y-66054795D01*
X122190687Y-66637565D01*
X122058378Y-67211874D01*
X121889927Y-67775935D01*
X121685978Y-68327959D01*
X121447172Y-68866158D01*
X121174151Y-69388743D01*
X120867557Y-69893926D01*
X120528032Y-70379919D01*
X120156219Y-70844933D01*
X119752759Y-71287180D01*
X119318294Y-71704872D01*
X118853466Y-72096220D01*
X118358917Y-72459436D01*
X117990022Y-72699308D01*
X117450456Y-73008089D01*
X116896851Y-73277099D01*
X116328713Y-73506501D01*
X115745551Y-73696461D01*
X115146871Y-73847143D01*
X114532181Y-73958713D01*
X114046667Y-74018167D01*
X113920267Y-74027623D01*
X113760543Y-74035119D01*
X113576460Y-74040614D01*
X113376983Y-74044066D01*
X113171077Y-74045434D01*
X112967708Y-74044676D01*
X112775841Y-74041751D01*
X112604440Y-74036617D01*
X112462473Y-74029232D01*
X112416833Y-74025717D01*
X111801898Y-73951361D01*
X111197469Y-73836480D01*
X110605144Y-73681935D01*
X110026521Y-73488587D01*
X109463199Y-73257297D01*
X108916776Y-72988925D01*
X108388850Y-72684333D01*
X107881019Y-72344381D01*
X107394880Y-71969929D01*
X106932034Y-71561840D01*
X106494076Y-71120972D01*
X106082607Y-70648188D01*
X106033712Y-70587635D01*
X105678055Y-70110385D01*
X105352599Y-69605782D01*
X105059295Y-69077999D01*
X104800094Y-68531213D01*
X104576948Y-67969599D01*
X104391808Y-67397332D01*
X104246627Y-66818587D01*
X104226100Y-66720056D01*
X104172106Y-66438364D01*
X104129327Y-66179264D01*
X104096730Y-65931944D01*
X104073279Y-65685587D01*
X104057941Y-65429379D01*
X104049681Y-65152506D01*
X104047456Y-64852083D01*
X104049206Y-64593362D01*
X104054431Y-64366549D01*
X104063964Y-64161306D01*
X104078635Y-63967289D01*
X104099277Y-63774158D01*
X104126721Y-63571572D01*
X104161797Y-63349189D01*
X104174257Y-63275167D01*
X104297100Y-62678930D01*
X104459970Y-62093966D01*
X104661603Y-61522212D01*
X104900735Y-60965605D01*
X105176101Y-60426085D01*
X105486438Y-59905589D01*
X105830482Y-59406054D01*
X106206967Y-58929420D01*
X106614630Y-58477624D01*
X107052206Y-58052604D01*
X107518432Y-57656298D01*
X108012043Y-57290644D01*
X108130583Y-57210236D01*
X108665446Y-56878184D01*
X109214282Y-56586008D01*
X109776740Y-56333834D01*
X110352468Y-56121788D01*
X110941113Y-55949995D01*
X111542323Y-55818582D01*
X112155748Y-55727674D01*
X112330841Y-55709382D01*
X112529772Y-55694543D01*
X112759131Y-55684222D01*
X113007716Y-55678429D01*
X113264325Y-55677171D01*
X113517755Y-55680455D01*
%TD*%
D11*
%TO.C,REF\u002A\u002A*%
X113200000Y-34000000D03*
%TD*%
M02*
