<svg id="Layer_1" data-name="Layer 1" xmlns="http://www.w3.org/2000/svg" viewBox="0 0 401.99 402.06"><defs><style>.cls-1{fill:#171717;}</style></defs><rect class="cls-1" x="201.03" width="67.01" height="67.01"/><rect class="cls-1" x="268.04" y="67.01" width="67.01" height="67.01"/><rect class="cls-1" x="335.05" width="67.01" height="67.01"/><rect class="cls-1" x="201.03" y="134.02" width="67.01" height="67.01"/><rect class="cls-1" x="335.05" y="134.02" width="67.01" height="67.01"/><path class="cls-1" d="M100.51,0A100.52,100.52,0,1,0,201,100.51,100.51,100.51,0,0,0,100.51,0Zm0,150.35a49.84,49.84,0,1,1,49.84-49.84A49.9,49.9,0,0,1,100.51,150.35Z"/><path class="cls-1" d="M150.35,251.71v99.67H50.68V251.71h99.67M201,201H0v201H201V201Z"/><path class="cls-1" d="M402,201h.07A100.63,100.63,0,0,1,301.55,301.55,100.47,100.47,0,0,1,402,201Z"/><path class="cls-1" d="M402.06,402.06H402A100.47,100.47,0,0,1,301.55,301.68h.31A100.15,100.15,0,0,1,402.06,402.06Z"/><path class="cls-1" d="M301.55,301.55h-.1A100.47,100.47,0,0,1,201,201C256.32,201.26,301.55,246.17,301.55,301.55Z"/><path class="cls-1" d="M301.55,301.68A100.55,100.55,0,0,1,201,402.06C201,346.65,246.22,301.85,301.55,301.68Z"/></svg>