<?xml version="1.0" encoding="UTF-8"?>
<svg width="700pt" height="700pt" version="1.1" viewBox="0 0 700 700" xmlns="http://www.w3.org/2000/svg" xmlns:xlink="http://www.w3.org/1999/xlink">
 <defs>
  <symbol id="p" overflow="visible">
   <path d="m33.094-1.9844c-1.7109 0.88672-3.4922 1.5547-5.3438 2-1.8438 0.45703-3.7734 0.6875-5.7812 0.6875-6 0-10.758-1.6758-14.266-5.0312-3.5-3.3516-5.25-7.8984-5.25-13.641 0-5.75 1.75-10.301 5.25-13.656 3.5078-3.3516 8.2656-5.0312 14.266-5.0312 2.0078 0 3.9375 0.22656 5.7812 0.67188 1.8516 0.44922 3.6328 1.1172 5.3438 2v7.4531c-1.7305-1.1641-3.4336-2.0195-5.1094-2.5625-1.668-0.55078-3.4219-0.82812-5.2656-0.82812-3.3125 0-5.918 1.0625-7.8125 3.1875-1.8984 2.1172-2.8438 5.0391-2.8438 8.7656 0 3.7188 0.94531 6.6406 2.8438 8.7656 1.8945 2.1172 4.5 3.1719 7.8125 3.1719 1.8438 0 3.5977-0.26953 5.2656-0.8125 1.6758-0.55078 3.3789-1.4102 5.1094-2.5781z"/>
  </symbol>
  <symbol id="j" overflow="visible">
   <path d="m24.219-19.656c-0.76172-0.35156-1.5156-0.61328-2.2656-0.78125-0.74219-0.16406-1.4922-0.25-2.25-0.25-2.2188 0-3.9297 0.71484-5.125 2.1406-1.1992 1.418-1.7969 3.4531-1.7969 6.1094v12.438h-8.6406v-27.016h8.6406v4.4375c1.1133-1.7578 2.3906-3.0469 3.8281-3.8594s3.1602-1.2188 5.1719-1.2188c0.28906 0 0.60156 0.011719 0.9375 0.03125 0.33203 0.023438 0.82031 0.074219 1.4688 0.15625z"/>
  </symbol>
  <symbol id="a" overflow="visible">
   <path d="m31.109-13.578v2.4531h-20.188c0.20703 2.0312 0.9375 3.5547 2.1875 4.5625 1.2578 1.0117 3.0156 1.5156 5.2656 1.5156 1.8203 0 3.6797-0.26562 5.5781-0.79688 1.9062-0.53906 3.8633-1.3594 5.875-2.4531v6.6562c-2.043 0.77344-4.0859 1.3555-6.125 1.75-2.043 0.39453-4.0859 0.59375-6.125 0.59375-4.8867 0-8.6836-1.2383-11.391-3.7188-2.7109-2.4883-4.0625-5.9766-4.0625-10.469 0-4.4062 1.3281-7.8672 3.9844-10.391 2.6641-2.5195 6.3281-3.7812 10.984-3.7812 4.25 0 7.6445 1.2773 10.188 3.8281 2.5508 2.5547 3.8281 5.9688 3.8281 10.25zm-8.875-2.875c0-1.6328-0.48047-2.9531-1.4375-3.9531-0.96094-1.0078-2.2109-1.5156-3.75-1.5156-1.668 0-3.0273 0.47656-4.0781 1.4219-1.043 0.9375-1.6953 2.2891-1.9531 4.0469z"/>
  </symbol>
  <symbol id="b" overflow="visible">
   <path d="m16.25-12.156c-1.8047 0-3.1562 0.30859-4.0625 0.92188-0.90625 0.60547-1.3594 1.5078-1.3594 2.7031 0 1.0938 0.36328 1.9492 1.0938 2.5625 0.72656 0.61719 1.7422 0.92188 3.0469 0.92188 1.625 0 2.9883-0.57812 4.0938-1.7344 1.1133-1.1641 1.6719-2.6289 1.6719-4.3906v-0.98438zm13.203-3.25v15.406h-8.7188v-4c-1.1562 1.6367-2.4609 2.8281-3.9062 3.5781-1.4492 0.75-3.2109 1.125-5.2812 1.125-2.793 0-5.0625-0.81641-6.8125-2.4531-1.7422-1.6328-2.6094-3.7539-2.6094-6.3594 0-3.1641 1.0859-5.4883 3.2656-6.9688 2.1758-1.4766 5.5977-2.2188 10.266-2.2188h5.0781v-0.67188c0-1.3633-0.53906-2.3633-1.6094-3-1.0742-0.63281-2.7578-0.95312-5.0469-0.95312-1.8438 0-3.5625 0.1875-5.1562 0.5625-1.5938 0.36719-3.0742 0.91797-4.4375 1.6562v-6.5781c1.8516-0.45703 3.7109-0.80078 5.5781-1.0312 1.8633-0.22656 3.7266-0.34375 5.5938-0.34375 4.8633 0 8.3789 0.96484 10.547 2.8906 2.1641 1.918 3.25 5.0391 3.25 9.3594z"/>
  </symbol>
  <symbol id="i" overflow="visible">
   <path d="m13.578-34.672v7.6562h8.9062v6.1719h-8.9062v11.469c0 1.25 0.25 2.1016 0.75 2.5469 0.5 0.4375 1.4883 0.65625 2.9688 0.65625h4.4375v6.1719h-7.4062c-3.4062 0-5.8242-0.70703-7.25-2.125-1.4297-1.4258-2.1406-3.8438-2.1406-7.25v-11.469h-4.2812v-6.1719h4.2812v-7.6562z"/>
  </symbol>
  <symbol id="h" overflow="visible">
   <path d="m22.531-23.062v-14.469h8.6719v37.531h-8.6719v-3.9062c-1.1992 1.5938-2.5117 2.7617-3.9375 3.5-1.4297 0.73828-3.0859 1.1094-4.9688 1.1094-3.3242 0-6.0586-1.3203-8.2031-3.9688-2.1367-2.6445-3.2031-6.0508-3.2031-10.219 0-4.1641 1.0664-7.5664 3.2031-10.203 2.1445-2.6445 4.8789-3.9688 8.2031-3.9688 1.8633 0 3.5156 0.375 4.9531 1.125 1.4375 0.74219 2.7539 1.8984 3.9531 3.4688zm-5.7031 17.484c1.8516 0 3.2656-0.67188 4.2344-2.0156 0.97656-1.3516 1.4688-3.3164 1.4688-5.8906 0-2.5703-0.49219-4.5312-1.4688-5.875-0.96875-1.3516-2.3828-2.0312-4.2344-2.0312-1.8359 0-3.2344 0.67969-4.2031 2.0312-0.96875 1.3438-1.4531 3.3047-1.4531 5.875 0 2.5742 0.48438 4.5391 1.4531 5.8906 0.96875 1.3438 2.3672 2.0156 4.2031 2.0156z"/>
  </symbol>
  <symbol id="g" overflow="visible">
   <path d="m18.516-5.5781c1.8516 0 3.2656-0.67188 4.2344-2.0156 0.97656-1.3516 1.4688-3.3164 1.4688-5.8906 0-2.5703-0.49219-4.5312-1.4688-5.875-0.96875-1.3516-2.3828-2.0312-4.2344-2.0312-1.8438 0-3.2617 0.68359-4.25 2.0469-0.99219 1.3555-1.4844 3.3086-1.4844 5.8594 0 2.5625 0.49219 4.5234 1.4844 5.875 0.98828 1.3555 2.4062 2.0312 4.25 2.0312zm-5.7344-17.484c1.1875-1.5703 2.5039-2.7266 3.9531-3.4688 1.4453-0.75 3.1133-1.125 5-1.125 3.3203 0 6.0508 1.3242 8.1875 3.9688 2.1445 2.6367 3.2188 6.0391 3.2188 10.203 0 4.168-1.0742 7.5742-3.2188 10.219-2.1367 2.6484-4.8672 3.9688-8.1875 3.9688-1.8867 0-3.5547-0.375-5-1.125-1.4492-0.75-2.7656-1.9102-3.9531-3.4844v3.9062h-8.6406v-37.531h8.6406z"/>
  </symbol>
  <symbol id="f" overflow="visible">
   <path d="m0.60938-27.016h8.625l7.2656 18.328 6.1719-18.328h8.625l-11.359 29.578c-1.1367 3-2.4648 5.0977-3.9844 6.2969-1.5234 1.1953-3.5273 1.7969-6.0156 1.7969h-5v-5.6719h2.7031c1.4688 0 2.5352-0.23438 3.2031-0.70312 0.66406-0.46094 1.1797-1.293 1.5469-2.5l0.25-0.75z"/>
  </symbol>
  <symbol id="e" overflow="visible">
   <path d="m4.5312-36h9.2812v32.5c0 4.4883-1.2188 7.8438-3.6562 10.062-2.4297 2.2188-6.1094 3.3281-11.047 3.3281h-1.875v-7.0156h1.4375c1.9258 0 3.3828-0.54297 4.375-1.625 0.98828-1.0742 1.4844-2.6562 1.4844-4.75z"/>
  </symbol>
  <symbol id="o" overflow="visible">
   <path d="m31.297-16.453v16.453h-8.6719v-12.594c0-2.3203-0.054688-3.9258-0.15625-4.8125-0.10547-0.88281-0.28906-1.5352-0.54688-1.9531-0.33594-0.5625-0.79297-1-1.375-1.3125-0.58594-0.32031-1.2461-0.48438-1.9844-0.48438-1.793 0-3.2031 0.69922-4.2344 2.0938-1.0312 1.3867-1.5469 3.3125-1.5469 5.7812v13.281h-8.6406v-27.016h8.6406v3.9531c1.3008-1.5703 2.6797-2.7266 4.1406-3.4688 1.4688-0.75 3.0859-1.125 4.8594-1.125 3.1133 0 5.4766 0.96094 7.0938 2.875 1.6133 1.9062 2.4219 4.6836 2.4219 8.3281z"/>
  </symbol>
  <symbol id="n" overflow="visible">
   <path d="m2.6719-17.719h15.156v7.0156h-15.156z"/>
  </symbol>
  <symbol id="m" overflow="visible">
   <path d="m4.5312-36h15.406c4.582 0 8.0977 1.0156 10.547 3.0469 2.457 2.0312 3.6875 4.9297 3.6875 8.6875 0 3.7812-1.2305 6.6875-3.6875 8.7188-2.4492 2.0312-5.9648 3.0469-10.547 3.0469h-6.125v12.5h-9.2812zm9.2812 6.7188v10.062h5.1406c1.8008 0 3.1914-0.4375 4.1719-1.3125 0.97656-0.875 1.4688-2.1172 1.4688-3.7344 0-1.6016-0.49219-2.8359-1.4688-3.7031-0.98047-0.875-2.3711-1.3125-4.1719-1.3125z"/>
  </symbol>
  <symbol id="l" overflow="visible">
   <path d="m31.297-16.453v16.453h-8.6719v-12.547c0-2.3516-0.054688-3.9727-0.15625-4.8594-0.10547-0.88281-0.28906-1.5352-0.54688-1.9531-0.33594-0.5625-0.79297-1-1.375-1.3125-0.58594-0.32031-1.2461-0.48438-1.9844-0.48438-1.793 0-3.2031 0.69922-4.2344 2.0938-1.0312 1.3867-1.5469 3.3125-1.5469 5.7812v13.281h-8.6406v-37.531h8.6406v14.469c1.3008-1.5703 2.6797-2.7266 4.1406-3.4688 1.4688-0.75 3.0859-1.125 4.8594-1.125 3.1133 0 5.4766 0.96094 7.0938 2.875 1.6133 1.9062 2.4219 4.6836 2.4219 8.3281z"/>
  </symbol>
  <symbol id="d" overflow="visible">
   <path d="m4.1406-27.016h8.6406v27.016h-8.6406zm0-10.516h8.6406v7.0469h-8.6406z"/>
  </symbol>
  <symbol id="k" overflow="visible">
   <path d="m4.1406-37.531h8.6406v37.531h-8.6406z"/>
  </symbol>
  <symbol id="c" overflow="visible">
   <path d="m12.781-3.9062v14.188h-8.6406v-37.297h8.6406v3.9531c1.1875-1.5703 2.5039-2.7266 3.9531-3.4688 1.4453-0.75 3.1133-1.125 5-1.125 3.3203 0 6.0508 1.3242 8.1875 3.9688 2.1445 2.6367 3.2188 6.0391 3.2188 10.203 0 4.168-1.0742 7.5742-3.2188 10.219-2.1367 2.6484-4.8672 3.9688-8.1875 3.9688-1.8867 0-3.5547-0.375-5-1.125-1.4492-0.75-2.7656-1.9102-3.9531-3.4844zm5.7344-17.484c-1.8438 0-3.2617 0.68359-4.25 2.0469-0.99219 1.3555-1.4844 3.3086-1.4844 5.8594 0 2.5625 0.49219 4.5234 1.4844 5.875 0.98828 1.3555 2.4062 2.0312 4.25 2.0312 1.8516 0 3.2656-0.67188 4.2344-2.0156 0.97656-1.3516 1.4688-3.3164 1.4688-5.8906 0-2.5703-0.49219-4.5312-1.4688-5.875-0.96875-1.3516-2.3828-2.0312-4.2344-2.0312z"/>
  </symbol>
 </defs>
 <g>
  <path d="m371.3 422.12c3.2891 4.4062 5.3242 10.223 5.3242 17.492 0 0.31641-0.13672 0.66016-0.15625 0.97656-0.87109 17.445-25.16 40.863-25.16 40.863s-24.289-23.422-25.16-40.863c-0.019532-0.31641-0.15625-0.66016-0.15625-0.97656 0-7.2812 2.0352-13.09 5.3242-17.492-11.934 6.0547-19.273 17.723-19.273 32.902 0 21.801 31.293 72.82 34.859 78.566l4.4062 7.082 4.4062-7.082c3.5664-5.75 34.859-56.766 34.859-78.566 0-15.172-7.3398-26.848-19.273-32.902z"/>
  <path d="m351.29 390.26c-11.746 0-23.48-0.82812-35.125-2.3789-4.207-0.5625-8.4141-1.1953-12.605-1.957 2.3203 7.5547 5.0781 15.004 8.457 22.246l1.1445 2.4609 2.6367 0.66016c7.9727 1.9961 16.121 3.0703 24.32 3.7031 3.7227 0.28516 7.4492 0.69141 11.191 0.69141 3.7422 0 7.457-0.40625 11.191-0.69141 8.1992-0.63281 16.359-1.6992 24.328-3.7031l2.6367-0.66016 1.1445-2.4688c3.3672-7.25 6.125-14.699 8.4453-22.246-4.1797 0.76172-8.3867 1.3828-12.594 1.9453-11.664 1.5586-23.418 2.3984-35.172 2.3984z"/>
  <path d="m454.75 259.3c-0.31641 6.1133-0.82031 12.188-1.5 18.246-3.3398 29.84-11.113 58.93-23.066 86.984-1.4023 3.3008-2.7578 6.5977-4.2773 9.8672l-0.31641 0.66016 61.934 18.551v-85.402z"/>
  <path d="m272.43 364.53c-11.961-28.055-19.734-57.164-23.074-86.992-0.67188-6.0547-1.1758-12.141-1.4922-18.254l-32.773 48.934v85.402l61.945-18.559-0.31641-0.66016c-1.5312-3.2617-2.8867-6.582-4.2891-9.8711z"/>
  <path d="m409.24 99.953c-20.605-37.574-43.461-60.809-51.543-68.355-0.82031-7.9219-2.5469-13.969-4.6719-16.141-0.20703-0.21875-0.41406-0.40625-0.63281-0.54297l-1.0859-0.92969-1.0859 0.92969c-0.21875 0.13672-0.42578 0.32422-0.63281 0.54297-2.125 2.1836-3.8438 8.2188-4.6719 16.141-8.0781 7.5547-30.926 30.777-51.543 68.355 38.309-6.3828 77.551-6.3828 115.87 0z"/>
  <path d="m351.31 185.33c-18.414 0-33.387 14.984-33.387 33.387s14.984 33.387 33.387 33.387 33.387-14.984 33.387-33.387-14.984-33.387-33.387-33.387z"/>
  <path d="m417.65 116.35c-1.0273-2.1719-2.0859-4.2383-3.1328-6.332-41.703-7.8047-84.73-7.8047-126.43 0-1.0469 2.0938-2.1133 4.1602-3.1328 6.332-18.867 39.906-28.43 82.5-28.43 126.62 0 44.145 9.582 87.062 28.457 127.58l1.0391 2.2305 2.3984 0.60156c20.527 5.1562 41.684 7.7656 62.863 7.7656h0.011719c21.188 0 42.355-2.6172 62.902-7.7734l2.3984-0.60156 1.0391-2.2305c18.867-40.488 28.438-83.406 28.438-127.57 0-44.129-9.5586-86.73-28.426-126.62zm-66.34 155.33c-29.207 0-52.965-23.766-52.965-52.965 0-29.199 23.758-52.965 52.965-52.965 29.207 0 52.965 23.758 52.965 52.965 0 29.207-23.766 52.965-52.965 52.965z"/>
  <use x="70" y="708.167969" xlink:href="#p"/>
  <use x="106.246094" y="708.167969" xlink:href="#j"/>
  <use x="130.601562" y="708.167969" xlink:href="#a"/>
  <use x="164.097656" y="708.167969" xlink:href="#b"/>
  <use x="197.425781" y="708.167969" xlink:href="#i"/>
  <use x="221.035156" y="708.167969" xlink:href="#a"/>
  <use x="254.53125" y="708.167969" xlink:href="#h"/>
  <use x="307.082031" y="708.167969" xlink:href="#g"/>
  <use x="342.433594" y="708.167969" xlink:href="#f"/>
  <use x="391.824219" y="708.167969" xlink:href="#e"/>
  <use x="410.199219" y="708.167969" xlink:href="#a"/>
  <use x="443.695312" y="708.167969" xlink:href="#b"/>
  <use x="477.023438" y="708.167969" xlink:href="#o"/>
  <use x="512.183594" y="708.167969" xlink:href="#n"/>
  <use x="532.683594" y="708.167969" xlink:href="#m"/>
  <use x="568.878906" y="708.167969" xlink:href="#l"/>
  <use x="604.039062" y="708.167969" xlink:href="#d"/>
  <use x="620.96875" y="708.167969" xlink:href="#k"/>
  <use x="637.898438" y="708.167969" xlink:href="#d"/>
  <use x="654.828125" y="708.167969" xlink:href="#c"/>
  <use x="690.183594" y="708.167969" xlink:href="#c"/>
 </g>
</svg>
